G75*
%MOIN*%
%OFA0B0*%
%FSLAX25Y25*%
%IPPOS*%
%LPD*%
%AMOC8*
5,1,8,0,0,1.08239X$1,22.5*
%
%ADD10C,0.01400*%
%ADD11C,0.01000*%
%ADD12C,0.01200*%
%ADD13C,0.01700*%
%ADD14C,0.02000*%
%ADD15R,0.06000X0.06000*%
%ADD16C,0.06000*%
%ADD17OC8,0.06000*%
%ADD18C,0.06299*%
%ADD19C,0.25984*%
%ADD20C,0.04000*%
%ADD21C,0.02400*%
%ADD22C,0.01600*%
D10*
X0327405Y0132661D02*
X0327405Y0136398D01*
X0327405Y0134529D02*
X0333009Y0134529D01*
X0333009Y0139107D02*
X0327405Y0139107D01*
X0327405Y0142843D01*
X0328339Y0145552D02*
X0327405Y0146486D01*
X0327405Y0148355D01*
X0328339Y0149289D01*
X0332075Y0149289D01*
X0333009Y0148355D01*
X0333009Y0146486D01*
X0332075Y0145552D01*
X0328339Y0145552D01*
X0331141Y0147420D02*
X0333009Y0149289D01*
X0333009Y0142843D02*
X0333009Y0139107D01*
X0330207Y0139107D02*
X0330207Y0140975D01*
X0333009Y0158443D02*
X0327405Y0158443D01*
X0333009Y0162180D01*
X0327405Y0162180D01*
X0329273Y0164889D02*
X0327405Y0166757D01*
X0329273Y0168625D01*
X0333009Y0168625D01*
X0333009Y0171334D02*
X0327405Y0171334D01*
X0327405Y0174137D01*
X0328339Y0175071D01*
X0330207Y0175071D01*
X0331141Y0174137D01*
X0331141Y0171334D01*
X0331141Y0173202D02*
X0333009Y0175071D01*
X0331141Y0177780D02*
X0333009Y0179648D01*
X0331141Y0181516D01*
X0327405Y0181516D01*
X0329273Y0184225D02*
X0327405Y0186093D01*
X0329273Y0187962D01*
X0333009Y0187962D01*
X0333009Y0190671D02*
X0327405Y0190671D01*
X0330207Y0187962D02*
X0330207Y0184225D01*
X0329273Y0184225D02*
X0333009Y0184225D01*
X0333009Y0190671D02*
X0333009Y0194407D01*
X0333009Y0203562D02*
X0329273Y0207298D01*
X0328339Y0207298D01*
X0327405Y0206364D01*
X0327405Y0204496D01*
X0328339Y0203562D01*
X0333009Y0203562D02*
X0333009Y0207298D01*
X0332075Y0210007D02*
X0328339Y0213744D01*
X0332075Y0213744D01*
X0333009Y0212810D01*
X0333009Y0210941D01*
X0332075Y0210007D01*
X0328339Y0210007D01*
X0327405Y0210941D01*
X0327405Y0212810D01*
X0328339Y0213744D01*
X0329273Y0216453D02*
X0327405Y0218321D01*
X0333009Y0218321D01*
X0333009Y0216453D02*
X0333009Y0220189D01*
X0332075Y0222898D02*
X0333009Y0223832D01*
X0333009Y0225701D01*
X0332075Y0226635D01*
X0331141Y0226635D01*
X0330207Y0225701D01*
X0330207Y0222898D01*
X0332075Y0222898D01*
X0330207Y0222898D02*
X0328339Y0224766D01*
X0327405Y0226635D01*
X0327405Y0177780D02*
X0331141Y0177780D01*
X0330207Y0168625D02*
X0330207Y0164889D01*
X0329273Y0164889D02*
X0333009Y0164889D01*
X0457021Y0221004D02*
X0457021Y0226609D01*
X0455153Y0226609D02*
X0458889Y0226609D01*
X0461598Y0223807D02*
X0461598Y0221938D01*
X0462533Y0221004D01*
X0464401Y0221004D01*
X0465335Y0221938D01*
X0465335Y0223807D01*
X0464401Y0224741D01*
X0462533Y0224741D01*
X0461598Y0223807D01*
X0468044Y0224741D02*
X0470846Y0224741D01*
X0471780Y0223807D01*
X0471780Y0221938D01*
X0470846Y0221004D01*
X0468044Y0221004D01*
X0468044Y0219136D02*
X0468044Y0224741D01*
D11*
X0474453Y0229054D02*
X0451953Y0229054D01*
X0451953Y0216554D01*
X0474453Y0216554D01*
X0474453Y0229054D01*
X0429684Y0219244D02*
X0429684Y0218576D01*
X0429017Y0217909D01*
X0427682Y0217909D01*
X0427015Y0218576D01*
X0427015Y0219244D01*
X0427682Y0219911D01*
X0429017Y0219911D01*
X0429684Y0219244D01*
X0429017Y0217909D02*
X0429684Y0217242D01*
X0429684Y0216575D01*
X0429017Y0215907D01*
X0427682Y0215907D01*
X0427015Y0216575D01*
X0427015Y0217242D01*
X0427682Y0217909D01*
X0412246Y0214244D02*
X0409577Y0211575D01*
X0410244Y0210907D01*
X0411578Y0210907D01*
X0412246Y0211575D01*
X0412246Y0214244D01*
X0411578Y0214911D01*
X0410244Y0214911D01*
X0409577Y0214244D01*
X0409577Y0211575D01*
X0407642Y0210907D02*
X0404973Y0210907D01*
X0406307Y0210907D02*
X0406307Y0214911D01*
X0404973Y0213576D01*
X0403038Y0212909D02*
X0400369Y0212909D01*
X0401703Y0211575D02*
X0401703Y0214244D01*
X0398434Y0214244D02*
X0397767Y0214911D01*
X0396432Y0214911D01*
X0395765Y0214244D01*
X0395765Y0213576D01*
X0396432Y0212909D01*
X0398434Y0212909D01*
X0398434Y0211575D02*
X0398434Y0214244D01*
X0398434Y0211575D02*
X0397767Y0210907D01*
X0396432Y0210907D01*
X0395765Y0211575D01*
X0359288Y0216575D02*
X0358621Y0215907D01*
X0357286Y0215907D01*
X0356619Y0216575D01*
X0359288Y0219244D01*
X0359288Y0216575D01*
X0359288Y0219244D02*
X0358621Y0219911D01*
X0357286Y0219911D01*
X0356619Y0219244D01*
X0356619Y0216575D01*
X0354684Y0215907D02*
X0352015Y0215907D01*
X0353349Y0215907D02*
X0353349Y0219911D01*
X0352015Y0218576D01*
X0215928Y0170860D02*
X0215930Y0170880D01*
X0215936Y0170898D01*
X0215945Y0170916D01*
X0215957Y0170931D01*
X0215972Y0170943D01*
X0215990Y0170952D01*
X0216008Y0170958D01*
X0216028Y0170960D01*
X0216048Y0170958D01*
X0216066Y0170952D01*
X0216084Y0170943D01*
X0216099Y0170931D01*
X0216111Y0170916D01*
X0216120Y0170898D01*
X0216126Y0170880D01*
X0216128Y0170860D01*
X0216126Y0170840D01*
X0216120Y0170822D01*
X0216111Y0170804D01*
X0216099Y0170789D01*
X0216084Y0170777D01*
X0216066Y0170768D01*
X0216048Y0170762D01*
X0216028Y0170760D01*
X0216008Y0170762D01*
X0215990Y0170768D01*
X0215972Y0170777D01*
X0215957Y0170789D01*
X0215945Y0170804D01*
X0215936Y0170822D01*
X0215930Y0170840D01*
X0215928Y0170860D01*
X0214228Y0170860D02*
X0214230Y0170944D01*
X0214236Y0171029D01*
X0214246Y0171112D01*
X0214260Y0171196D01*
X0214277Y0171278D01*
X0214299Y0171360D01*
X0214324Y0171440D01*
X0214353Y0171519D01*
X0214386Y0171597D01*
X0214422Y0171673D01*
X0214462Y0171748D01*
X0214506Y0171820D01*
X0214552Y0171891D01*
X0214602Y0171959D01*
X0214655Y0172024D01*
X0214711Y0172087D01*
X0214770Y0172148D01*
X0214832Y0172205D01*
X0214896Y0172260D01*
X0214963Y0172311D01*
X0215032Y0172360D01*
X0215104Y0172405D01*
X0215177Y0172446D01*
X0215252Y0172484D01*
X0215329Y0172519D01*
X0215408Y0172550D01*
X0215488Y0172577D01*
X0215569Y0172600D01*
X0215651Y0172620D01*
X0215734Y0172636D01*
X0215817Y0172648D01*
X0215902Y0172656D01*
X0215986Y0172660D01*
X0216070Y0172660D01*
X0216154Y0172656D01*
X0216239Y0172648D01*
X0216322Y0172636D01*
X0216405Y0172620D01*
X0216487Y0172600D01*
X0216568Y0172577D01*
X0216648Y0172550D01*
X0216727Y0172519D01*
X0216804Y0172484D01*
X0216879Y0172446D01*
X0216952Y0172405D01*
X0217024Y0172360D01*
X0217093Y0172311D01*
X0217160Y0172260D01*
X0217224Y0172205D01*
X0217286Y0172148D01*
X0217345Y0172087D01*
X0217401Y0172024D01*
X0217454Y0171959D01*
X0217504Y0171891D01*
X0217550Y0171820D01*
X0217594Y0171748D01*
X0217634Y0171673D01*
X0217670Y0171597D01*
X0217703Y0171519D01*
X0217732Y0171440D01*
X0217757Y0171360D01*
X0217779Y0171278D01*
X0217796Y0171196D01*
X0217810Y0171112D01*
X0217820Y0171029D01*
X0217826Y0170944D01*
X0217828Y0170860D01*
X0217826Y0170776D01*
X0217820Y0170691D01*
X0217810Y0170608D01*
X0217796Y0170524D01*
X0217779Y0170442D01*
X0217757Y0170360D01*
X0217732Y0170280D01*
X0217703Y0170201D01*
X0217670Y0170123D01*
X0217634Y0170047D01*
X0217594Y0169972D01*
X0217550Y0169900D01*
X0217504Y0169829D01*
X0217454Y0169761D01*
X0217401Y0169696D01*
X0217345Y0169633D01*
X0217286Y0169572D01*
X0217224Y0169515D01*
X0217160Y0169460D01*
X0217093Y0169409D01*
X0217024Y0169360D01*
X0216952Y0169315D01*
X0216879Y0169274D01*
X0216804Y0169236D01*
X0216727Y0169201D01*
X0216648Y0169170D01*
X0216568Y0169143D01*
X0216487Y0169120D01*
X0216405Y0169100D01*
X0216322Y0169084D01*
X0216239Y0169072D01*
X0216154Y0169064D01*
X0216070Y0169060D01*
X0215986Y0169060D01*
X0215902Y0169064D01*
X0215817Y0169072D01*
X0215734Y0169084D01*
X0215651Y0169100D01*
X0215569Y0169120D01*
X0215488Y0169143D01*
X0215408Y0169170D01*
X0215329Y0169201D01*
X0215252Y0169236D01*
X0215177Y0169274D01*
X0215104Y0169315D01*
X0215032Y0169360D01*
X0214963Y0169409D01*
X0214896Y0169460D01*
X0214832Y0169515D01*
X0214770Y0169572D01*
X0214711Y0169633D01*
X0214655Y0169696D01*
X0214602Y0169761D01*
X0214552Y0169829D01*
X0214506Y0169900D01*
X0214462Y0169972D01*
X0214422Y0170047D01*
X0214386Y0170123D01*
X0214353Y0170201D01*
X0214324Y0170280D01*
X0214299Y0170360D01*
X0214277Y0170442D01*
X0214260Y0170524D01*
X0214246Y0170608D01*
X0214236Y0170691D01*
X0214230Y0170776D01*
X0214228Y0170860D01*
X0126392Y0211575D02*
X0125725Y0210907D01*
X0124390Y0210907D01*
X0123723Y0211575D01*
X0123723Y0212242D01*
X0124390Y0212909D01*
X0125725Y0212909D01*
X0126392Y0212242D01*
X0126392Y0211575D01*
X0125725Y0212909D02*
X0126392Y0213576D01*
X0126392Y0214244D01*
X0125725Y0214911D01*
X0124390Y0214911D01*
X0123723Y0214244D01*
X0123723Y0213576D01*
X0124390Y0212909D01*
X0121788Y0212909D02*
X0119119Y0212909D01*
X0120453Y0211575D02*
X0120453Y0214244D01*
X0117184Y0214244D02*
X0114515Y0211575D01*
X0114515Y0210907D01*
X0117184Y0214244D02*
X0117184Y0214911D01*
X0114515Y0214911D01*
X0099515Y0224657D02*
X0099515Y0225325D01*
X0102184Y0227994D01*
X0102184Y0228661D01*
X0099515Y0228661D01*
X0178265Y0227994D02*
X0178265Y0227326D01*
X0178932Y0226659D01*
X0180934Y0226659D01*
X0180934Y0225325D02*
X0180934Y0227994D01*
X0180267Y0228661D01*
X0178932Y0228661D01*
X0178265Y0227994D01*
X0178265Y0225325D02*
X0178932Y0224657D01*
X0180267Y0224657D01*
X0180934Y0225325D01*
X0194274Y0072435D02*
X0194276Y0072455D01*
X0194282Y0072473D01*
X0194291Y0072491D01*
X0194303Y0072506D01*
X0194318Y0072518D01*
X0194336Y0072527D01*
X0194354Y0072533D01*
X0194374Y0072535D01*
X0194394Y0072533D01*
X0194412Y0072527D01*
X0194430Y0072518D01*
X0194445Y0072506D01*
X0194457Y0072491D01*
X0194466Y0072473D01*
X0194472Y0072455D01*
X0194474Y0072435D01*
X0194472Y0072415D01*
X0194466Y0072397D01*
X0194457Y0072379D01*
X0194445Y0072364D01*
X0194430Y0072352D01*
X0194412Y0072343D01*
X0194394Y0072337D01*
X0194374Y0072335D01*
X0194354Y0072337D01*
X0194336Y0072343D01*
X0194318Y0072352D01*
X0194303Y0072364D01*
X0194291Y0072379D01*
X0194282Y0072397D01*
X0194276Y0072415D01*
X0194274Y0072435D01*
X0192574Y0072435D02*
X0192576Y0072519D01*
X0192582Y0072604D01*
X0192592Y0072687D01*
X0192606Y0072771D01*
X0192623Y0072853D01*
X0192645Y0072935D01*
X0192670Y0073015D01*
X0192699Y0073094D01*
X0192732Y0073172D01*
X0192768Y0073248D01*
X0192808Y0073323D01*
X0192852Y0073395D01*
X0192898Y0073466D01*
X0192948Y0073534D01*
X0193001Y0073599D01*
X0193057Y0073662D01*
X0193116Y0073723D01*
X0193178Y0073780D01*
X0193242Y0073835D01*
X0193309Y0073886D01*
X0193378Y0073935D01*
X0193450Y0073980D01*
X0193523Y0074021D01*
X0193598Y0074059D01*
X0193675Y0074094D01*
X0193754Y0074125D01*
X0193834Y0074152D01*
X0193915Y0074175D01*
X0193997Y0074195D01*
X0194080Y0074211D01*
X0194163Y0074223D01*
X0194248Y0074231D01*
X0194332Y0074235D01*
X0194416Y0074235D01*
X0194500Y0074231D01*
X0194585Y0074223D01*
X0194668Y0074211D01*
X0194751Y0074195D01*
X0194833Y0074175D01*
X0194914Y0074152D01*
X0194994Y0074125D01*
X0195073Y0074094D01*
X0195150Y0074059D01*
X0195225Y0074021D01*
X0195298Y0073980D01*
X0195370Y0073935D01*
X0195439Y0073886D01*
X0195506Y0073835D01*
X0195570Y0073780D01*
X0195632Y0073723D01*
X0195691Y0073662D01*
X0195747Y0073599D01*
X0195800Y0073534D01*
X0195850Y0073466D01*
X0195896Y0073395D01*
X0195940Y0073323D01*
X0195980Y0073248D01*
X0196016Y0073172D01*
X0196049Y0073094D01*
X0196078Y0073015D01*
X0196103Y0072935D01*
X0196125Y0072853D01*
X0196142Y0072771D01*
X0196156Y0072687D01*
X0196166Y0072604D01*
X0196172Y0072519D01*
X0196174Y0072435D01*
X0196172Y0072351D01*
X0196166Y0072266D01*
X0196156Y0072183D01*
X0196142Y0072099D01*
X0196125Y0072017D01*
X0196103Y0071935D01*
X0196078Y0071855D01*
X0196049Y0071776D01*
X0196016Y0071698D01*
X0195980Y0071622D01*
X0195940Y0071547D01*
X0195896Y0071475D01*
X0195850Y0071404D01*
X0195800Y0071336D01*
X0195747Y0071271D01*
X0195691Y0071208D01*
X0195632Y0071147D01*
X0195570Y0071090D01*
X0195506Y0071035D01*
X0195439Y0070984D01*
X0195370Y0070935D01*
X0195298Y0070890D01*
X0195225Y0070849D01*
X0195150Y0070811D01*
X0195073Y0070776D01*
X0194994Y0070745D01*
X0194914Y0070718D01*
X0194833Y0070695D01*
X0194751Y0070675D01*
X0194668Y0070659D01*
X0194585Y0070647D01*
X0194500Y0070639D01*
X0194416Y0070635D01*
X0194332Y0070635D01*
X0194248Y0070639D01*
X0194163Y0070647D01*
X0194080Y0070659D01*
X0193997Y0070675D01*
X0193915Y0070695D01*
X0193834Y0070718D01*
X0193754Y0070745D01*
X0193675Y0070776D01*
X0193598Y0070811D01*
X0193523Y0070849D01*
X0193450Y0070890D01*
X0193378Y0070935D01*
X0193309Y0070984D01*
X0193242Y0071035D01*
X0193178Y0071090D01*
X0193116Y0071147D01*
X0193057Y0071208D01*
X0193001Y0071271D01*
X0192948Y0071336D01*
X0192898Y0071404D01*
X0192852Y0071475D01*
X0192808Y0071547D01*
X0192768Y0071622D01*
X0192732Y0071698D01*
X0192699Y0071776D01*
X0192670Y0071855D01*
X0192645Y0071935D01*
X0192623Y0072017D01*
X0192606Y0072099D01*
X0192592Y0072183D01*
X0192582Y0072266D01*
X0192576Y0072351D01*
X0192574Y0072435D01*
D12*
X0189374Y0073685D02*
X0188124Y0071185D01*
X0180624Y0068685D01*
X0195624Y0068685D01*
X0188124Y0066185D01*
X0190624Y0063685D01*
X0194374Y0061185D01*
X0200624Y0061185D01*
X0210624Y0076185D01*
X0210624Y0062435D01*
X0200624Y0076185D01*
X0193124Y0076185D01*
X0189374Y0073685D01*
X0175196Y0082406D02*
X0199448Y0106657D01*
X0205265Y0106657D01*
X0212106Y0122268D02*
X0212106Y0090772D01*
X0212361Y0091028D01*
X0212361Y0090772D01*
X0236515Y0088390D02*
X0236515Y0095407D01*
X0238188Y0097081D01*
X0238188Y0137031D01*
X0255649Y0131480D02*
X0260078Y0131480D01*
X0260078Y0127543D01*
X0264015Y0131480D01*
X0268444Y0131480D01*
X0264015Y0131480D02*
X0264015Y0135417D01*
X0264015Y0131480D02*
X0264015Y0127543D01*
X0264015Y0131480D02*
X0260078Y0135417D01*
X0260078Y0131480D01*
X0277765Y0132317D02*
X0277765Y0116657D01*
X0267765Y0106657D01*
X0267765Y0080486D01*
X0263287Y0076008D01*
X0263041Y0076254D01*
X0259350Y0072563D01*
X0259350Y0064197D01*
X0266239Y0057307D01*
X0282480Y0057307D01*
X0285924Y0053862D01*
X0285924Y0048941D01*
X0270176Y0033193D01*
X0248031Y0033193D01*
X0243602Y0028764D01*
X0231298Y0028764D01*
X0228838Y0031224D01*
X0227361Y0026303D02*
X0245078Y0026303D01*
X0249015Y0030240D01*
X0273129Y0030240D01*
X0288385Y0045496D01*
X0288385Y0054846D01*
X0276574Y0066657D01*
X0265747Y0066657D01*
X0274606Y0075516D01*
X0274606Y0092740D01*
X0280550Y0098685D01*
X0280550Y0121815D01*
X0293306Y0134571D01*
X0294291Y0134571D01*
X0292322Y0130142D02*
X0310531Y0130142D01*
X0315944Y0126205D02*
X0317913Y0128173D01*
X0315944Y0126205D02*
X0291830Y0126205D01*
X0285432Y0119807D01*
X0285432Y0092976D01*
X0283228Y0090772D01*
X0278050Y0092740D02*
X0282972Y0097661D01*
X0282972Y0120791D01*
X0292322Y0130142D01*
X0285432Y0139984D02*
X0277765Y0132317D01*
X0285432Y0139984D02*
X0287401Y0139984D01*
X0291805Y0151559D02*
X0301805Y0159059D01*
X0301805Y0164059D01*
X0299305Y0166559D01*
X0296805Y0161559D01*
X0296805Y0171559D01*
X0294305Y0166559D01*
X0291805Y0164059D01*
X0291805Y0159059D01*
X0301805Y0151559D01*
X0291805Y0151559D01*
X0293505Y0161559D02*
X0293507Y0161615D01*
X0293513Y0161672D01*
X0293523Y0161727D01*
X0293537Y0161782D01*
X0293554Y0161836D01*
X0293576Y0161888D01*
X0293601Y0161938D01*
X0293629Y0161987D01*
X0293661Y0162034D01*
X0293696Y0162078D01*
X0293734Y0162120D01*
X0293775Y0162159D01*
X0293819Y0162194D01*
X0293865Y0162227D01*
X0293913Y0162256D01*
X0293963Y0162282D01*
X0294015Y0162305D01*
X0294069Y0162323D01*
X0294123Y0162338D01*
X0294178Y0162349D01*
X0294234Y0162356D01*
X0294291Y0162359D01*
X0294347Y0162358D01*
X0294404Y0162353D01*
X0294459Y0162344D01*
X0294514Y0162331D01*
X0294568Y0162314D01*
X0294621Y0162294D01*
X0294672Y0162270D01*
X0294721Y0162242D01*
X0294768Y0162211D01*
X0294813Y0162177D01*
X0294856Y0162139D01*
X0294895Y0162099D01*
X0294932Y0162056D01*
X0294965Y0162011D01*
X0294995Y0161963D01*
X0295022Y0161913D01*
X0295045Y0161862D01*
X0295065Y0161809D01*
X0295081Y0161755D01*
X0295093Y0161699D01*
X0295101Y0161644D01*
X0295105Y0161587D01*
X0295105Y0161531D01*
X0295101Y0161474D01*
X0295093Y0161419D01*
X0295081Y0161363D01*
X0295065Y0161309D01*
X0295045Y0161256D01*
X0295022Y0161205D01*
X0294995Y0161155D01*
X0294965Y0161107D01*
X0294932Y0161062D01*
X0294895Y0161019D01*
X0294856Y0160979D01*
X0294813Y0160941D01*
X0294768Y0160907D01*
X0294721Y0160876D01*
X0294672Y0160848D01*
X0294621Y0160824D01*
X0294568Y0160804D01*
X0294514Y0160787D01*
X0294459Y0160774D01*
X0294404Y0160765D01*
X0294347Y0160760D01*
X0294291Y0160759D01*
X0294234Y0160762D01*
X0294178Y0160769D01*
X0294123Y0160780D01*
X0294069Y0160795D01*
X0294015Y0160813D01*
X0293963Y0160836D01*
X0293913Y0160862D01*
X0293865Y0160891D01*
X0293819Y0160924D01*
X0293775Y0160959D01*
X0293734Y0160998D01*
X0293696Y0161040D01*
X0293661Y0161084D01*
X0293629Y0161131D01*
X0293601Y0161180D01*
X0293576Y0161230D01*
X0293554Y0161282D01*
X0293537Y0161336D01*
X0293523Y0161391D01*
X0293513Y0161446D01*
X0293507Y0161503D01*
X0293505Y0161559D01*
X0349901Y0155240D02*
X0351377Y0153764D01*
X0351377Y0146874D01*
X0349901Y0145398D01*
X0349901Y0096185D01*
X0354094Y0090772D02*
X0354094Y0124492D01*
X0359251Y0129650D01*
X0374015Y0128173D02*
X0374015Y0137031D01*
X0374015Y0153764D01*
X0387302Y0167051D01*
X0388287Y0177386D02*
X0373031Y0162130D01*
X0367125Y0162130D01*
X0370078Y0167543D02*
X0374138Y0171603D01*
X0374138Y0177509D01*
X0377460Y0180831D01*
X0383857Y0180831D01*
X0388287Y0183291D02*
X0388287Y0177386D01*
X0388287Y0183291D02*
X0383857Y0186736D01*
X0403050Y0176402D02*
X0404035Y0175417D01*
X0404035Y0172957D01*
X0403050Y0171972D01*
X0403050Y0168035D01*
X0414369Y0156717D01*
X0426672Y0156717D01*
X0430609Y0152780D01*
X0430609Y0143429D01*
X0429133Y0141953D01*
X0429133Y0139984D01*
X0428641Y0139492D01*
X0420767Y0139492D01*
X0418798Y0141461D01*
X0395669Y0141461D01*
X0390747Y0136539D01*
X0390255Y0130634D02*
X0398621Y0139000D01*
X0416338Y0139000D01*
X0421751Y0133587D01*
X0429133Y0132110D02*
X0429133Y0139984D01*
X0435531Y0135063D02*
X0422243Y0121776D01*
X0422243Y0098646D01*
X0416338Y0092740D01*
X0416338Y0075516D01*
X0407480Y0066657D01*
X0418306Y0066657D01*
X0430117Y0054846D01*
X0430117Y0047465D01*
X0412893Y0030240D01*
X0391731Y0030240D01*
X0386810Y0025319D01*
X0369586Y0025319D01*
X0365157Y0029748D01*
X0365157Y0037130D01*
X0375491Y0036146D02*
X0375491Y0053862D01*
X0387302Y0065673D01*
X0387302Y0086835D01*
X0389271Y0088803D01*
X0389271Y0093724D01*
X0379428Y0103567D01*
X0379428Y0122760D01*
X0374015Y0128173D01*
X0388779Y0130634D02*
X0390255Y0130634D01*
X0410432Y0107996D02*
X0419783Y0117346D01*
X0419783Y0122760D01*
X0429133Y0132110D01*
X0434054Y0130142D02*
X0438483Y0130142D01*
X0443405Y0135063D01*
X0443405Y0157701D01*
X0447342Y0159177D02*
X0437007Y0169512D01*
X0428149Y0169512D01*
X0424212Y0173449D01*
X0424212Y0192386D01*
X0424960Y0193134D01*
X0425196Y0193134D01*
X0428149Y0196087D01*
X0428149Y0208085D01*
X0422765Y0211657D02*
X0412106Y0222661D01*
X0374094Y0222661D01*
X0374015Y0222661D01*
X0356791Y0226598D02*
X0352361Y0226598D01*
X0352361Y0222661D01*
X0348424Y0222661D02*
X0348424Y0226598D01*
X0348424Y0230535D01*
X0352361Y0226598D01*
X0352361Y0230535D01*
X0352361Y0226598D02*
X0348424Y0222661D01*
X0348424Y0226598D02*
X0343995Y0226598D01*
X0336038Y0229294D02*
X0336038Y0130430D01*
X0324209Y0130430D02*
X0324209Y0229294D01*
X0363188Y0197071D02*
X0363188Y0194610D01*
X0351869Y0183291D01*
X0349901Y0183291D01*
X0349901Y0155240D01*
X0407480Y0169512D02*
X0408464Y0170496D01*
X0407480Y0169512D02*
X0417814Y0169512D01*
X0435531Y0151795D01*
X0435531Y0135063D01*
X0434054Y0130142D02*
X0424704Y0120791D01*
X0424704Y0097661D01*
X0419783Y0092740D01*
X0419783Y0076008D01*
X0440449Y0055342D01*
X0443619Y0055342D01*
X0414580Y0026303D01*
X0394192Y0026303D01*
X0390747Y0021382D02*
X0358267Y0021382D01*
X0355314Y0024335D01*
X0355314Y0056815D01*
X0350393Y0053370D02*
X0350393Y0022366D01*
X0353838Y0018921D01*
X0369172Y0018921D01*
X0374094Y0014000D01*
X0374015Y0013921D01*
X0390747Y0021382D02*
X0397637Y0014492D01*
X0397637Y0014413D01*
X0397716Y0014000D01*
X0410432Y0012524D02*
X0414861Y0012524D01*
X0414861Y0008587D01*
X0418798Y0012524D01*
X0423228Y0012524D01*
X0418798Y0012524D02*
X0418798Y0008587D01*
X0418798Y0012524D02*
X0418798Y0016461D01*
X0414861Y0016461D02*
X0418798Y0012524D01*
X0414861Y0012524D02*
X0414861Y0016461D01*
X0391731Y0034669D02*
X0384842Y0027780D01*
X0374015Y0027780D01*
X0370570Y0031224D01*
X0391731Y0034669D02*
X0412893Y0034669D01*
X0427657Y0049433D01*
X0427657Y0052878D01*
X0423228Y0057307D01*
X0407972Y0057307D01*
X0401082Y0064197D01*
X0401082Y0072563D01*
X0404773Y0076254D01*
X0405019Y0076008D01*
X0410432Y0081421D01*
X0410432Y0107996D01*
X0427165Y0119807D02*
X0435039Y0127681D01*
X0444881Y0127681D01*
X0447342Y0130142D01*
X0447342Y0159177D01*
X0455708Y0163606D02*
X0455708Y0135555D01*
X0427165Y0119807D02*
X0427165Y0092976D01*
X0424960Y0090772D01*
X0405019Y0076500D02*
X0404773Y0076254D01*
X0443619Y0055342D02*
X0443622Y0055339D01*
X0443897Y0055339D01*
X0456692Y0099630D02*
X0460137Y0103075D01*
X0460137Y0179846D01*
X0440452Y0199531D01*
X0440452Y0205437D01*
X0455708Y0209374D02*
X0460137Y0209374D01*
X0460137Y0205437D01*
X0464074Y0209374D01*
X0468503Y0209374D01*
X0464074Y0209374D02*
X0464074Y0205437D01*
X0464074Y0209374D02*
X0464074Y0213311D01*
X0460137Y0213311D02*
X0464074Y0209374D01*
X0460137Y0209374D02*
X0460137Y0213311D01*
X0422765Y0211657D02*
X0422765Y0199531D01*
X0422735Y0199531D01*
X0354330Y0193134D02*
X0354094Y0192898D01*
X0354094Y0193134D01*
X0354094Y0192898D02*
X0353838Y0192642D01*
X0343503Y0192642D01*
X0264291Y0212327D02*
X0264291Y0222327D01*
X0254428Y0222169D02*
X0254291Y0222307D01*
X0254291Y0222327D01*
X0254291Y0212327D01*
X0254428Y0212189D01*
X0264271Y0212346D02*
X0264291Y0212327D01*
X0254291Y0222307D02*
X0245078Y0231520D01*
X0051180Y0231520D01*
X0041830Y0222169D01*
X0013287Y0222169D01*
X0007381Y0216264D01*
X0007381Y0185752D01*
X0007873Y0185260D01*
X0014271Y0190673D02*
X0016239Y0188705D01*
X0016239Y0169020D01*
X0014271Y0167051D01*
X0008857Y0167051D01*
X0006889Y0165083D01*
X0006889Y0156717D01*
X0016731Y0146874D01*
X0018208Y0146874D01*
X0021653Y0143429D01*
X0021653Y0139984D01*
X0019192Y0137524D01*
X0017224Y0137524D01*
X0010826Y0131126D01*
X0010826Y0127189D01*
X0013779Y0124236D01*
X0016731Y0124236D01*
X0018700Y0122268D01*
X0018700Y0099138D01*
X0014763Y0095201D01*
X0033464Y0103075D02*
X0033464Y0068134D01*
X0048720Y0052878D01*
X0081692Y0052878D01*
X0091043Y0043528D01*
X0141731Y0043528D01*
X0146653Y0048449D01*
X0146653Y0054354D01*
X0134350Y0066657D01*
X0124015Y0066657D01*
X0132873Y0075516D01*
X0132873Y0092740D01*
X0140255Y0100122D01*
X0140255Y0124236D01*
X0151082Y0135063D01*
X0152066Y0135063D01*
X0152066Y0151795D01*
X0134350Y0169512D01*
X0124015Y0169512D01*
X0119586Y0168035D02*
X0119586Y0175417D01*
X0117617Y0173449D01*
X0102361Y0173449D01*
X0090550Y0161638D01*
X0090550Y0142445D01*
X0096456Y0135555D02*
X0096456Y0102583D01*
X0105806Y0093232D01*
X0105806Y0088803D01*
X0103838Y0086835D01*
X0103838Y0065673D01*
X0119094Y0066165D02*
X0119094Y0072563D01*
X0119094Y0076008D01*
X0126968Y0083882D01*
X0126968Y0100122D01*
X0137794Y0110949D01*
X0137794Y0125713D01*
X0145176Y0133094D01*
X0145176Y0140969D01*
X0145669Y0139984D01*
X0145176Y0140969D02*
X0145176Y0154748D01*
X0137302Y0162130D01*
X0124999Y0162130D01*
X0119586Y0168035D01*
X0102854Y0168035D02*
X0102735Y0167917D01*
X0096456Y0161638D01*
X0096456Y0135555D01*
X0070629Y0133577D02*
X0070619Y0133587D01*
X0070629Y0133577D02*
X0070629Y0193134D01*
X0070629Y0209118D01*
X0069881Y0209866D01*
X0057578Y0209866D01*
X0050196Y0202484D01*
X0050196Y0201992D01*
X0050196Y0174925D01*
X0044783Y0169512D01*
X0045039Y0169256D01*
X0045107Y0169256D01*
X0038877Y0172957D02*
X0034448Y0172957D01*
X0029527Y0177878D01*
X0029527Y0197563D01*
X0026082Y0201008D01*
X0022145Y0201008D01*
X0016731Y0195594D01*
X0016731Y0194118D01*
X0018208Y0192642D01*
X0019192Y0191657D01*
X0019192Y0168035D01*
X0014271Y0163114D01*
X0010826Y0163114D01*
X0035924Y0177386D02*
X0036170Y0177140D01*
X0037155Y0177632D01*
X0039861Y0180339D01*
X0039861Y0184276D01*
X0044783Y0189197D01*
X0040354Y0189197D01*
X0031987Y0197563D01*
X0031987Y0198547D01*
X0027066Y0203469D01*
X0021161Y0203469D01*
X0014271Y0196579D01*
X0014271Y0190673D01*
X0032972Y0211343D02*
X0040354Y0204453D01*
X0047735Y0204453D01*
X0050196Y0201992D01*
X0032972Y0211343D02*
X0023129Y0211343D01*
X0059546Y0220201D02*
X0063976Y0220201D01*
X0063976Y0216264D01*
X0067913Y0220201D01*
X0072342Y0220201D01*
X0067913Y0220201D02*
X0067913Y0224138D01*
X0067913Y0220201D02*
X0067913Y0216264D01*
X0067913Y0220201D02*
X0063976Y0224138D01*
X0063976Y0220201D01*
X0090550Y0222661D02*
X0090629Y0222661D01*
X0090550Y0222661D02*
X0102854Y0210358D01*
X0102854Y0199399D01*
X0137794Y0199039D02*
X0137794Y0216756D01*
X0149113Y0228075D01*
X0166338Y0228075D01*
X0171259Y0223154D01*
X0165846Y0222661D02*
X0161495Y0222661D01*
X0161417Y0222661D01*
X0165846Y0222661D02*
X0191928Y0196579D01*
X0191928Y0155732D01*
X0187991Y0150319D02*
X0187991Y0186736D01*
X0167322Y0207406D01*
X0157480Y0207406D01*
X0150590Y0200024D01*
X0141731Y0193134D02*
X0141495Y0193134D01*
X0140747Y0192386D01*
X0140747Y0173449D01*
X0147637Y0166559D01*
X0156495Y0166559D01*
X0163385Y0159669D01*
X0163385Y0160161D01*
X0165846Y0162622D01*
X0170275Y0164098D02*
X0170275Y0160161D01*
X0172735Y0157701D01*
X0170275Y0164098D02*
X0164861Y0169512D01*
X0152558Y0169512D01*
X0146653Y0175417D01*
X0146495Y0175417D01*
X0166338Y0175417D02*
X0166495Y0175417D01*
X0166338Y0175417D02*
X0166338Y0173941D01*
X0176672Y0163606D01*
X0183562Y0163114D02*
X0172243Y0174433D01*
X0172243Y0192150D01*
X0171495Y0192898D01*
X0171495Y0193134D01*
X0141731Y0193134D02*
X0141731Y0208882D01*
X0144684Y0212022D01*
X0194291Y0212327D02*
X0194291Y0222327D01*
X0204291Y0222327D02*
X0204291Y0212327D01*
X0214291Y0212327D02*
X0214291Y0222327D01*
X0224291Y0222327D02*
X0224291Y0212327D01*
X0234251Y0212327D02*
X0234291Y0212327D01*
X0234291Y0222327D01*
X0244291Y0222327D02*
X0244291Y0212327D01*
X0244291Y0211146D01*
X0232278Y0174610D02*
X0222278Y0159610D01*
X0216028Y0159610D01*
X0216535Y0159669D02*
X0214719Y0159669D01*
X0209778Y0164610D01*
X0217278Y0167110D01*
X0202278Y0167110D01*
X0209778Y0169610D01*
X0211028Y0172110D01*
X0214778Y0174610D01*
X0222278Y0174610D01*
X0232278Y0160860D01*
X0232278Y0174610D01*
X0187991Y0150319D02*
X0173228Y0135555D01*
X0173228Y0099630D01*
X0146161Y0095437D02*
X0146161Y0122268D01*
X0151082Y0127189D01*
X0161417Y0127189D01*
X0163877Y0129650D01*
X0163877Y0159177D01*
X0163385Y0159669D01*
X0159940Y0157701D02*
X0159940Y0131618D01*
X0158464Y0130142D01*
X0150098Y0130142D01*
X0143208Y0123252D01*
X0143208Y0099630D01*
X0136318Y0092740D01*
X0136318Y0076008D01*
X0156984Y0055342D01*
X0160154Y0055342D01*
X0144403Y0039591D01*
X0079724Y0039591D01*
X0065373Y0025240D01*
X0061023Y0025240D01*
X0064960Y0030240D02*
X0079724Y0045004D01*
X0079724Y0048941D01*
X0069389Y0048449D02*
X0062991Y0042051D01*
X0027558Y0042051D01*
X0020669Y0027780D02*
X0010826Y0037622D01*
X0010826Y0115870D01*
X0014763Y0119807D01*
X0008365Y0132602D02*
X0008365Y0032209D01*
X0020669Y0019906D01*
X0017224Y0015476D02*
X0029035Y0015476D01*
X0043798Y0030240D01*
X0064960Y0030240D01*
X0078739Y0034177D02*
X0156495Y0034177D01*
X0175196Y0052878D01*
X0175196Y0082406D01*
X0146161Y0095437D02*
X0141495Y0090772D01*
X0119094Y0066165D02*
X0123031Y0062228D01*
X0135334Y0062228D01*
X0144192Y0053370D01*
X0144192Y0049925D01*
X0133365Y0030240D02*
X0133365Y0026303D01*
X0137794Y0026303D01*
X0133365Y0026303D02*
X0133365Y0022366D01*
X0129428Y0022366D02*
X0129428Y0026303D01*
X0129428Y0030240D01*
X0133365Y0026303D01*
X0129428Y0022366D01*
X0129428Y0026303D02*
X0124999Y0026303D01*
X0092519Y0047957D02*
X0080216Y0060260D01*
X0064468Y0060260D01*
X0056102Y0068626D01*
X0056102Y0105535D01*
X0065452Y0114886D01*
X0065452Y0121283D01*
X0056102Y0130634D01*
X0056102Y0170988D01*
X0062499Y0177386D01*
X0066436Y0187720D02*
X0066436Y0124728D01*
X0067913Y0123252D01*
X0067913Y0111933D01*
X0066436Y0110457D01*
X0066436Y0096185D01*
X0070629Y0091028D02*
X0070373Y0090772D01*
X0070629Y0090772D02*
X0070629Y0091028D01*
X0070629Y0133577D01*
X0041338Y0125220D02*
X0041338Y0106520D01*
X0036909Y0102091D01*
X0036909Y0070102D01*
X0049704Y0057307D01*
X0053641Y0057307D01*
X0026330Y0057685D02*
X0016330Y0065185D01*
X0016330Y0070185D01*
X0018830Y0072685D01*
X0021330Y0067685D01*
X0021330Y0077685D01*
X0023830Y0072685D01*
X0026330Y0070185D01*
X0026330Y0065185D01*
X0016330Y0057685D01*
X0026330Y0057685D01*
X0023030Y0067685D02*
X0023032Y0067741D01*
X0023038Y0067798D01*
X0023048Y0067853D01*
X0023062Y0067908D01*
X0023079Y0067962D01*
X0023101Y0068014D01*
X0023126Y0068064D01*
X0023154Y0068113D01*
X0023186Y0068160D01*
X0023221Y0068204D01*
X0023259Y0068246D01*
X0023300Y0068285D01*
X0023344Y0068320D01*
X0023390Y0068353D01*
X0023438Y0068382D01*
X0023488Y0068408D01*
X0023540Y0068431D01*
X0023594Y0068449D01*
X0023648Y0068464D01*
X0023703Y0068475D01*
X0023759Y0068482D01*
X0023816Y0068485D01*
X0023872Y0068484D01*
X0023929Y0068479D01*
X0023984Y0068470D01*
X0024039Y0068457D01*
X0024093Y0068440D01*
X0024146Y0068420D01*
X0024197Y0068396D01*
X0024246Y0068368D01*
X0024293Y0068337D01*
X0024338Y0068303D01*
X0024381Y0068265D01*
X0024420Y0068225D01*
X0024457Y0068182D01*
X0024490Y0068137D01*
X0024520Y0068089D01*
X0024547Y0068039D01*
X0024570Y0067988D01*
X0024590Y0067935D01*
X0024606Y0067881D01*
X0024618Y0067825D01*
X0024626Y0067770D01*
X0024630Y0067713D01*
X0024630Y0067657D01*
X0024626Y0067600D01*
X0024618Y0067545D01*
X0024606Y0067489D01*
X0024590Y0067435D01*
X0024570Y0067382D01*
X0024547Y0067331D01*
X0024520Y0067281D01*
X0024490Y0067233D01*
X0024457Y0067188D01*
X0024420Y0067145D01*
X0024381Y0067105D01*
X0024338Y0067067D01*
X0024293Y0067033D01*
X0024246Y0067002D01*
X0024197Y0066974D01*
X0024146Y0066950D01*
X0024093Y0066930D01*
X0024039Y0066913D01*
X0023984Y0066900D01*
X0023929Y0066891D01*
X0023872Y0066886D01*
X0023816Y0066885D01*
X0023759Y0066888D01*
X0023703Y0066895D01*
X0023648Y0066906D01*
X0023594Y0066921D01*
X0023540Y0066939D01*
X0023488Y0066962D01*
X0023438Y0066988D01*
X0023390Y0067017D01*
X0023344Y0067050D01*
X0023300Y0067085D01*
X0023259Y0067124D01*
X0023221Y0067166D01*
X0023186Y0067210D01*
X0023154Y0067257D01*
X0023126Y0067306D01*
X0023101Y0067356D01*
X0023079Y0067408D01*
X0023062Y0067462D01*
X0023048Y0067517D01*
X0023038Y0067572D01*
X0023032Y0067629D01*
X0023030Y0067685D01*
X0078739Y0034177D02*
X0055609Y0011047D01*
X0018208Y0011047D01*
X0017224Y0015476D02*
X0012794Y0019906D01*
X0033464Y0103075D02*
X0037401Y0107012D01*
X0037401Y0120299D01*
X0017716Y0141953D02*
X0008365Y0132602D01*
X0038877Y0172957D02*
X0045275Y0179354D01*
X0045206Y0179354D01*
X0045107Y0179256D01*
X0044783Y0189197D02*
X0044842Y0189256D01*
X0045107Y0189256D01*
X0063483Y0190673D02*
X0066436Y0187720D01*
X0212106Y0122268D02*
X0219487Y0129650D01*
X0232283Y0120299D02*
X0232361Y0120299D01*
X0232283Y0120299D02*
X0232283Y0104059D01*
X0233759Y0102583D01*
X0236515Y0088390D02*
X0245570Y0079335D01*
X0245570Y0065673D01*
X0233759Y0053862D01*
X0233759Y0037130D01*
X0222932Y0036638D02*
X0222932Y0030732D01*
X0227361Y0026303D01*
X0227361Y0019413D02*
X0213090Y0019413D01*
X0208661Y0023843D01*
X0208661Y0053370D01*
X0213582Y0056323D02*
X0213582Y0023843D01*
X0215550Y0021874D01*
X0248109Y0021874D01*
X0255983Y0014000D01*
X0250983Y0025319D02*
X0251476Y0025811D01*
X0272355Y0025811D01*
X0301886Y0055342D01*
X0301890Y0055339D01*
X0302165Y0055339D01*
X0301886Y0055342D02*
X0298716Y0055342D01*
X0278050Y0076008D01*
X0278050Y0092740D01*
X0263287Y0076500D02*
X0263041Y0076254D01*
X0305117Y0120299D02*
X0320373Y0105043D01*
X0332184Y0110949D02*
X0332184Y0114886D01*
X0332184Y0118823D01*
X0336121Y0114886D01*
X0340550Y0114886D01*
X0336121Y0114886D02*
X0336121Y0110949D01*
X0336121Y0114886D02*
X0332184Y0110949D01*
X0332184Y0114886D02*
X0327755Y0114886D01*
X0336121Y0114886D02*
X0336121Y0118823D01*
X0305117Y0120299D02*
X0303228Y0120299D01*
X0303149Y0120299D01*
X0227361Y0019413D02*
X0232361Y0014413D01*
X0232361Y0014000D01*
D13*
X0310319Y0152754D02*
X0312621Y0155056D01*
X0310319Y0157358D01*
X0317225Y0157358D01*
X0310319Y0160673D02*
X0310319Y0165277D01*
X0310319Y0162975D02*
X0317225Y0162975D01*
X0317225Y0168592D02*
X0310319Y0173196D01*
X0310319Y0168592D02*
X0317225Y0173196D01*
X0316074Y0176511D02*
X0317225Y0177662D01*
X0317225Y0179964D01*
X0316074Y0181115D01*
X0314923Y0181115D01*
X0313772Y0179964D01*
X0313772Y0176511D01*
X0316074Y0176511D01*
X0313772Y0176511D02*
X0311470Y0178813D01*
X0310319Y0181115D01*
X0310319Y0184429D02*
X0310319Y0187882D01*
X0311470Y0189033D01*
X0312621Y0189033D01*
X0313772Y0187882D01*
X0313772Y0184429D01*
X0317225Y0184429D02*
X0310319Y0184429D01*
X0313772Y0187882D02*
X0314923Y0189033D01*
X0316074Y0189033D01*
X0317225Y0187882D01*
X0317225Y0184429D01*
X0317225Y0192348D02*
X0310319Y0192348D01*
X0310319Y0195801D01*
X0311470Y0196952D01*
X0313772Y0196952D01*
X0314923Y0195801D01*
X0314923Y0192348D01*
X0314923Y0194650D02*
X0317225Y0196952D01*
X0314923Y0208186D02*
X0310319Y0208186D01*
X0314923Y0208186D02*
X0317225Y0210488D01*
X0314923Y0212790D01*
X0310319Y0212790D01*
X0311470Y0216104D02*
X0310319Y0217255D01*
X0310319Y0219557D01*
X0311470Y0220708D01*
X0312621Y0220708D01*
X0317225Y0216104D01*
X0317225Y0220708D01*
X0317225Y0152754D02*
X0310319Y0152754D01*
D14*
X0388329Y0244989D02*
X0390998Y0247657D01*
X0389664Y0247657D01*
X0389664Y0248992D01*
X0390998Y0248992D01*
X0390998Y0247657D01*
X0384860Y0247657D02*
X0382191Y0247657D01*
X0383525Y0247657D02*
X0383525Y0252995D01*
X0382191Y0252995D01*
X0383525Y0255664D02*
X0383525Y0256999D01*
X0378321Y0251661D02*
X0376986Y0252995D01*
X0372983Y0252995D01*
X0372983Y0247657D01*
X0378321Y0247657D02*
X0378321Y0251661D01*
X0369313Y0252995D02*
X0367979Y0252995D01*
X0365310Y0250326D01*
X0365310Y0247657D02*
X0365310Y0252995D01*
X0361440Y0251661D02*
X0361440Y0247657D01*
X0357436Y0247657D01*
X0356102Y0248992D01*
X0357436Y0250326D01*
X0361440Y0250326D01*
X0361440Y0251661D02*
X0360105Y0252995D01*
X0357436Y0252995D01*
X0352232Y0251661D02*
X0352232Y0247657D01*
X0349563Y0247657D02*
X0349563Y0251661D01*
X0350897Y0252995D01*
X0352232Y0251661D01*
X0349563Y0251661D02*
X0348228Y0252995D01*
X0346894Y0252995D01*
X0346894Y0247657D01*
X0341890Y0252995D02*
X0339221Y0250326D01*
X0339221Y0247657D02*
X0339221Y0252995D01*
X0341890Y0252995D02*
X0343224Y0252995D01*
X0335351Y0252995D02*
X0335351Y0247657D01*
X0331347Y0247657D01*
X0330013Y0248992D01*
X0330013Y0252995D01*
X0331347Y0255664D02*
X0334016Y0256999D01*
X0326543Y0252995D02*
X0323874Y0252995D01*
X0325209Y0254330D02*
X0325209Y0248992D01*
X0326543Y0247657D01*
X0320004Y0247657D02*
X0320004Y0251661D01*
X0318670Y0252995D01*
X0314666Y0252995D01*
X0314666Y0247657D01*
X0310797Y0248992D02*
X0310797Y0251661D01*
X0309462Y0252995D01*
X0306793Y0252995D01*
X0305459Y0251661D01*
X0305459Y0248992D01*
X0306793Y0247657D01*
X0309462Y0247657D01*
X0310797Y0248992D01*
X0301789Y0247657D02*
X0297785Y0250326D01*
X0301789Y0252995D01*
X0297785Y0255664D02*
X0297785Y0247657D01*
X0285108Y0247657D02*
X0282439Y0247657D01*
X0283773Y0247657D02*
X0283773Y0255664D01*
X0282439Y0255664D01*
X0277635Y0255664D02*
X0277635Y0247657D01*
X0278969Y0247657D02*
X0276300Y0247657D01*
X0272430Y0250326D02*
X0267093Y0250326D01*
X0267093Y0248992D02*
X0267093Y0251661D01*
X0268427Y0252995D01*
X0271096Y0252995D01*
X0272430Y0251661D01*
X0272430Y0250326D01*
X0271096Y0247657D02*
X0268427Y0247657D01*
X0267093Y0248992D01*
X0263423Y0247657D02*
X0259419Y0250326D01*
X0263423Y0252995D01*
X0259419Y0255664D02*
X0259419Y0247657D01*
X0246342Y0248992D02*
X0245007Y0247657D01*
X0241004Y0247657D01*
X0242338Y0250326D02*
X0241004Y0251661D01*
X0242338Y0252995D01*
X0246342Y0252995D01*
X0245007Y0250326D02*
X0242338Y0250326D01*
X0245007Y0250326D02*
X0246342Y0248992D01*
X0237534Y0247657D02*
X0234865Y0247657D01*
X0236200Y0247657D02*
X0236200Y0252995D01*
X0234865Y0252995D01*
X0236200Y0255664D02*
X0236200Y0256999D01*
X0222188Y0252995D02*
X0219519Y0252995D01*
X0220853Y0254330D02*
X0220853Y0248992D01*
X0222188Y0247657D01*
X0215849Y0252995D02*
X0214514Y0252995D01*
X0211845Y0250326D01*
X0211845Y0247657D02*
X0211845Y0252995D01*
X0207975Y0251661D02*
X0207975Y0248992D01*
X0206641Y0247657D01*
X0203972Y0247657D01*
X0202638Y0248992D01*
X0202638Y0251661D01*
X0203972Y0252995D01*
X0206641Y0252995D01*
X0207975Y0251661D01*
X0206641Y0255664D02*
X0206641Y0256999D01*
X0203972Y0256999D02*
X0203972Y0255664D01*
X0198968Y0252995D02*
X0194964Y0250326D01*
X0198968Y0247657D01*
X0194964Y0247657D02*
X0194964Y0255664D01*
X0171745Y0255664D02*
X0171745Y0256999D01*
X0171745Y0252995D02*
X0170410Y0252995D01*
X0171745Y0252995D02*
X0171745Y0247657D01*
X0173079Y0247657D02*
X0170410Y0247657D01*
X0166940Y0247657D02*
X0164271Y0247657D01*
X0165606Y0247657D02*
X0165606Y0255664D01*
X0164271Y0255664D01*
X0160401Y0252995D02*
X0160401Y0247657D01*
X0156398Y0247657D01*
X0155064Y0248992D01*
X0155064Y0252995D01*
X0156398Y0255664D02*
X0156398Y0256999D01*
X0159067Y0256999D02*
X0159067Y0255664D01*
X0151394Y0252995D02*
X0150059Y0252995D01*
X0147390Y0250326D01*
X0147390Y0247657D02*
X0147390Y0252995D01*
X0143520Y0251661D02*
X0143520Y0248992D01*
X0142186Y0247657D01*
X0139517Y0247657D01*
X0138183Y0248992D01*
X0138183Y0251661D01*
X0139517Y0252995D01*
X0142186Y0252995D01*
X0143520Y0251661D01*
X0142186Y0255664D02*
X0142186Y0256999D01*
X0139517Y0256999D02*
X0139517Y0255664D01*
X0134513Y0252995D02*
X0130509Y0250326D01*
X0134513Y0247657D01*
X0130509Y0247657D02*
X0130509Y0255664D01*
X0117431Y0251661D02*
X0117431Y0247657D01*
X0114763Y0247657D02*
X0114763Y0251661D01*
X0116097Y0252995D01*
X0117431Y0251661D01*
X0114763Y0251661D02*
X0113428Y0252995D01*
X0112094Y0252995D01*
X0112094Y0247657D01*
X0108224Y0247657D02*
X0108224Y0251661D01*
X0106889Y0252995D01*
X0105555Y0251661D01*
X0105555Y0247657D01*
X0102886Y0247657D02*
X0102886Y0252995D01*
X0104220Y0252995D01*
X0105555Y0251661D01*
X0099016Y0252995D02*
X0099016Y0254330D01*
X0097681Y0255664D01*
X0095012Y0255664D01*
X0093678Y0254330D01*
X0096347Y0251661D02*
X0097681Y0251661D01*
X0099016Y0250326D01*
X0099016Y0248992D01*
X0097681Y0247657D01*
X0095012Y0247657D01*
X0093678Y0248992D01*
X0097681Y0251661D02*
X0099016Y0252995D01*
X0071392Y0251661D02*
X0071392Y0248992D01*
X0070058Y0247657D01*
X0066054Y0247657D01*
X0066054Y0255664D01*
X0066054Y0252995D02*
X0070058Y0252995D01*
X0071392Y0251661D01*
X0062184Y0252995D02*
X0058181Y0252995D01*
X0056846Y0251661D01*
X0056846Y0248992D01*
X0058181Y0247657D01*
X0062184Y0247657D01*
X0062184Y0255664D01*
X0052976Y0254330D02*
X0052976Y0248992D01*
X0051642Y0247657D01*
X0048973Y0247657D01*
X0047639Y0248992D01*
X0052976Y0254330D01*
X0051642Y0255664D01*
X0048973Y0255664D01*
X0047639Y0254330D01*
X0047639Y0248992D01*
X0043769Y0247657D02*
X0038431Y0247657D01*
X0041100Y0247657D02*
X0041100Y0255664D01*
X0038431Y0252995D01*
X0025353Y0252995D02*
X0025353Y0247657D01*
X0025353Y0251661D02*
X0020015Y0251661D01*
X0020015Y0252995D02*
X0022684Y0255664D01*
X0025353Y0252995D01*
X0020015Y0252995D02*
X0020015Y0247657D01*
X0276300Y0255664D02*
X0277635Y0255664D01*
X0403676Y0252995D02*
X0406345Y0247657D01*
X0409014Y0252995D01*
X0414218Y0252995D02*
X0416887Y0252995D01*
X0418222Y0251661D01*
X0418222Y0247657D01*
X0414218Y0247657D01*
X0412884Y0248992D01*
X0414218Y0250326D01*
X0418222Y0250326D01*
X0422092Y0248992D02*
X0423426Y0247657D01*
X0427429Y0247657D01*
X0427429Y0246323D02*
X0427429Y0252995D01*
X0423426Y0252995D01*
X0422092Y0251661D01*
X0422092Y0248992D01*
X0426095Y0244989D02*
X0427429Y0246323D01*
X0426095Y0244989D02*
X0424760Y0244989D01*
X0431299Y0248992D02*
X0432634Y0247657D01*
X0436637Y0247657D01*
X0436637Y0246323D02*
X0435303Y0244989D01*
X0433968Y0244989D01*
X0436637Y0246323D02*
X0436637Y0252995D01*
X0431299Y0252995D02*
X0431299Y0248992D01*
X0449715Y0251661D02*
X0452384Y0251661D01*
X0451050Y0254330D02*
X0452384Y0255664D01*
X0451050Y0254330D02*
X0451050Y0247657D01*
X0455854Y0248992D02*
X0457188Y0247657D01*
X0461192Y0247657D01*
X0461192Y0252995D01*
X0465062Y0252995D02*
X0465062Y0247657D01*
X0465062Y0250326D02*
X0467730Y0252995D01*
X0469065Y0252995D01*
X0472735Y0252995D02*
X0476738Y0252995D01*
X0478073Y0251661D01*
X0478073Y0247657D01*
X0481943Y0247657D02*
X0484612Y0247657D01*
X0483277Y0247657D02*
X0483277Y0252995D01*
X0481943Y0252995D01*
X0483277Y0255664D02*
X0483277Y0256999D01*
X0488081Y0256999D02*
X0488081Y0251661D01*
X0488081Y0248992D02*
X0488081Y0247657D01*
X0472735Y0247657D02*
X0472735Y0252995D01*
X0459857Y0256999D02*
X0457188Y0255664D01*
X0455854Y0252995D02*
X0455854Y0248992D01*
D15*
X0284291Y0212327D03*
X0045107Y0209256D03*
D16*
X0045107Y0199256D03*
X0045107Y0189256D03*
X0045107Y0179256D03*
X0045107Y0169256D03*
X0080629Y0120299D03*
X0151495Y0120299D03*
X0222361Y0120299D03*
X0257794Y0120299D03*
X0293228Y0120299D03*
X0364094Y0120299D03*
X0434960Y0120299D03*
X0268124Y0195212D03*
X0240251Y0185392D03*
X0244291Y0212327D03*
X0254291Y0212327D03*
X0264291Y0212327D03*
X0274291Y0212327D03*
X0274291Y0222327D03*
X0284291Y0222327D03*
X0264291Y0222327D03*
X0254291Y0222327D03*
X0244291Y0222327D03*
X0234291Y0222327D03*
X0224291Y0222327D03*
X0214291Y0222327D03*
X0204291Y0222327D03*
X0194291Y0222327D03*
X0194291Y0212327D03*
X0204291Y0212327D03*
X0214291Y0212327D03*
X0224291Y0212327D03*
X0234291Y0212327D03*
X0151495Y0222661D03*
X0080629Y0222661D03*
X0364094Y0222661D03*
X0434960Y0222661D03*
X0061023Y0035240D03*
X0127873Y0014000D03*
X0151495Y0014000D03*
X0175117Y0014000D03*
X0198739Y0014000D03*
X0222361Y0014000D03*
X0245983Y0014000D03*
X0269606Y0014000D03*
X0293228Y0014000D03*
X0316850Y0014000D03*
X0340472Y0014000D03*
X0364094Y0014000D03*
X0387716Y0014000D03*
D17*
X0397716Y0014000D03*
X0374094Y0014000D03*
X0350472Y0014000D03*
X0326850Y0014000D03*
X0303228Y0014000D03*
X0279606Y0014000D03*
X0255983Y0014000D03*
X0232361Y0014000D03*
X0208739Y0014000D03*
X0185117Y0014000D03*
X0161495Y0014000D03*
X0137873Y0014000D03*
X0061023Y0025240D03*
X0090629Y0120299D03*
X0161495Y0120299D03*
X0232361Y0120299D03*
X0267794Y0120299D03*
X0303228Y0120299D03*
X0374094Y0120299D03*
X0444960Y0120299D03*
X0268124Y0185212D03*
X0240251Y0195392D03*
X0161495Y0222661D03*
X0090629Y0222661D03*
X0374094Y0222661D03*
X0444960Y0222661D03*
D18*
X0454960Y0193134D03*
X0424960Y0193134D03*
X0429960Y0175417D03*
X0439960Y0175417D03*
X0449960Y0175417D03*
X0384094Y0193134D03*
X0354094Y0193134D03*
X0359094Y0175417D03*
X0369094Y0175417D03*
X0379094Y0175417D03*
X0384094Y0090772D03*
X0354094Y0090772D03*
X0359094Y0073055D03*
X0369094Y0073055D03*
X0379094Y0073055D03*
X0424960Y0090772D03*
X0454960Y0090772D03*
X0449960Y0073055D03*
X0439960Y0073055D03*
X0429960Y0073055D03*
X0313228Y0090772D03*
X0283228Y0090772D03*
X0288228Y0073055D03*
X0298228Y0073055D03*
X0308228Y0073055D03*
X0242361Y0090772D03*
X0212361Y0090772D03*
X0217361Y0073055D03*
X0227361Y0073055D03*
X0237361Y0073055D03*
X0171495Y0090772D03*
X0141495Y0090772D03*
X0146495Y0073055D03*
X0156495Y0073055D03*
X0166495Y0073055D03*
X0100629Y0090772D03*
X0070629Y0090772D03*
X0075629Y0073055D03*
X0085629Y0073055D03*
X0095629Y0073055D03*
X0095629Y0175417D03*
X0085629Y0175417D03*
X0075629Y0175417D03*
X0070629Y0193134D03*
X0100629Y0193134D03*
X0141495Y0193134D03*
X0171495Y0193134D03*
X0166495Y0175417D03*
X0156495Y0175417D03*
X0146495Y0175417D03*
D19*
X0440452Y0017937D03*
D20*
X0018208Y0011047D03*
X0020669Y0019906D03*
X0012794Y0019906D03*
X0020669Y0027780D03*
X0027558Y0042051D03*
X0053641Y0057307D03*
X0048720Y0064689D03*
X0069389Y0048449D03*
X0079724Y0048941D03*
X0092519Y0047957D03*
X0103346Y0055339D03*
X0103838Y0065673D03*
X0119094Y0072563D03*
X0124015Y0066657D03*
X0140004Y0051530D03*
X0160154Y0055342D03*
X0208661Y0053370D03*
X0213582Y0056323D03*
X0245078Y0055339D03*
X0246554Y0045585D03*
X0233759Y0037130D03*
X0242125Y0032701D03*
X0251476Y0025811D03*
X0228838Y0031224D03*
X0222932Y0036638D03*
X0281736Y0051530D03*
X0301886Y0055342D03*
X0265747Y0066657D03*
X0263287Y0076008D03*
X0245570Y0065673D03*
X0233759Y0102583D03*
X0205265Y0106657D03*
X0173228Y0099630D03*
X0163877Y0107504D03*
X0159940Y0131618D03*
X0152066Y0135063D03*
X0145669Y0139984D03*
X0140275Y0143267D03*
X0135826Y0139492D03*
X0140344Y0153892D03*
X0159940Y0157701D03*
X0165846Y0162622D03*
X0172735Y0157701D03*
X0176672Y0163606D03*
X0183562Y0163114D03*
X0191928Y0155732D03*
X0238188Y0137031D03*
X0246554Y0147366D03*
X0253936Y0147858D03*
X0281987Y0143921D03*
X0287401Y0139984D03*
X0294291Y0134571D03*
X0310531Y0130142D03*
X0317913Y0128173D03*
X0320373Y0105043D03*
X0349901Y0096185D03*
X0387302Y0065673D03*
X0386810Y0055339D03*
X0387883Y0045585D03*
X0385826Y0034669D03*
X0375491Y0036146D03*
X0370570Y0031224D03*
X0365157Y0037130D03*
X0350393Y0053370D03*
X0355314Y0056815D03*
X0407480Y0066657D03*
X0405019Y0076008D03*
X0443619Y0055342D03*
X0423469Y0051530D03*
X0394192Y0026303D03*
X0456692Y0099630D03*
X0447342Y0130142D03*
X0443405Y0135063D03*
X0435531Y0135063D03*
X0421751Y0133587D03*
X0423720Y0143921D03*
X0443405Y0157701D03*
X0455708Y0163606D03*
X0407480Y0169512D03*
X0404035Y0175417D03*
X0387302Y0167051D03*
X0370078Y0167543D03*
X0367125Y0162130D03*
X0388287Y0147366D03*
X0390747Y0136539D03*
X0388779Y0130634D03*
X0374015Y0137031D03*
X0359251Y0129650D03*
X0455708Y0135555D03*
X0383857Y0180831D03*
X0383857Y0186736D03*
X0363188Y0197071D03*
X0343503Y0192642D03*
X0349901Y0183291D03*
X0422735Y0199531D03*
X0428149Y0208085D03*
X0440452Y0205437D03*
X0262794Y0189689D03*
X0248031Y0189689D03*
X0249507Y0177386D03*
X0256397Y0177386D03*
X0195865Y0183783D03*
X0157480Y0207406D03*
X0150590Y0200024D03*
X0137794Y0199039D03*
X0144684Y0212022D03*
X0171259Y0223154D03*
X0102854Y0199399D03*
X0069881Y0209866D03*
X0035954Y0199256D03*
X0022637Y0196087D03*
X0018208Y0192642D03*
X0007873Y0185260D03*
X0012302Y0170988D03*
X0010826Y0163114D03*
X0019684Y0155240D03*
X0017716Y0141953D03*
X0039861Y0142445D03*
X0014763Y0129157D03*
X0014763Y0119807D03*
X0037401Y0120299D03*
X0041338Y0125220D03*
X0057578Y0118331D03*
X0029527Y0103567D03*
X0041338Y0100122D03*
X0066436Y0096185D03*
X0014763Y0095201D03*
X0096456Y0135555D03*
X0090550Y0142445D03*
X0104822Y0147366D03*
X0102735Y0167917D03*
X0119586Y0175417D03*
X0124015Y0169512D03*
X0062499Y0177386D03*
X0063483Y0190673D03*
X0035924Y0177386D03*
X0023129Y0211343D03*
X0018208Y0216264D03*
X0219487Y0129650D03*
D21*
X0224409Y0131618D02*
X0221456Y0134571D01*
X0208169Y0134571D01*
X0196850Y0145811D01*
X0196850Y0182799D01*
X0195865Y0183783D01*
X0156495Y0175417D02*
X0154527Y0175417D01*
X0148621Y0181323D01*
X0148621Y0195594D01*
X0146653Y0197563D01*
X0146161Y0197563D01*
X0145669Y0198055D01*
X0145669Y0201992D01*
X0151574Y0207898D01*
X0151574Y0222661D01*
X0151495Y0222661D01*
X0080629Y0222661D02*
X0080629Y0192071D01*
X0077755Y0189197D01*
X0077755Y0181323D01*
X0083661Y0175417D01*
X0085629Y0175417D01*
X0085629Y0125299D01*
X0080629Y0120299D01*
X0080629Y0089709D01*
X0077755Y0086835D01*
X0077755Y0078961D01*
X0083661Y0073055D01*
X0085629Y0073055D01*
X0103346Y0055339D02*
X0110235Y0062228D01*
X0110235Y0078961D01*
X0119094Y0087819D01*
X0119094Y0097661D01*
X0099901Y0116854D01*
X0099901Y0131618D01*
X0104822Y0136539D01*
X0104822Y0147366D01*
X0113188Y0139492D02*
X0135826Y0139492D01*
X0140255Y0143921D01*
X0140255Y0143286D01*
X0140275Y0143267D01*
X0140255Y0143921D02*
X0140255Y0153892D01*
X0140344Y0153892D01*
X0140127Y0153892D01*
X0113188Y0139492D02*
X0103838Y0130142D01*
X0103838Y0118823D01*
X0123523Y0099138D01*
X0123523Y0085358D01*
X0114172Y0076008D01*
X0114172Y0063213D01*
X0123031Y0053862D01*
X0123523Y0053370D01*
X0123031Y0053862D02*
X0137794Y0053862D01*
X0140004Y0051653D01*
X0140004Y0051530D01*
X0156495Y0073055D02*
X0158464Y0073055D01*
X0165354Y0079945D01*
X0165354Y0106520D01*
X0166338Y0107504D01*
X0163877Y0107504D01*
X0162893Y0108488D01*
X0162893Y0108980D01*
X0151574Y0120299D01*
X0151495Y0120299D01*
X0219487Y0086835D02*
X0219487Y0078961D01*
X0225393Y0073055D01*
X0227361Y0073055D01*
X0245078Y0055339D02*
X0251968Y0062228D01*
X0251968Y0089955D01*
X0244015Y0097907D01*
X0244015Y0144827D01*
X0246554Y0147366D01*
X0247046Y0147858D01*
X0253936Y0147858D01*
X0246554Y0147366D02*
X0240251Y0153670D01*
X0240251Y0185392D01*
X0240649Y0185752D02*
X0239665Y0184768D01*
X0240649Y0185752D02*
X0244094Y0185752D01*
X0248031Y0189689D01*
X0240251Y0195392D02*
X0240157Y0195485D01*
X0240157Y0195594D01*
X0256397Y0195594D01*
X0256889Y0195102D01*
X0274113Y0212327D01*
X0274291Y0212327D01*
X0274291Y0222327D01*
X0284291Y0222327D02*
X0284291Y0212327D01*
X0284291Y0211185D01*
X0284098Y0211185D01*
X0268124Y0195212D01*
X0268208Y0195128D01*
X0268208Y0195102D01*
X0262794Y0189689D01*
X0268124Y0185212D02*
X0268124Y0157784D01*
X0281987Y0143921D01*
X0274015Y0135949D01*
X0274015Y0117907D01*
X0262755Y0106648D01*
X0262755Y0082858D01*
X0255905Y0076008D01*
X0255905Y0063213D01*
X0257612Y0061411D01*
X0257612Y0060983D01*
X0246554Y0049925D01*
X0246554Y0045585D01*
X0240157Y0050417D02*
X0240157Y0035161D01*
X0242125Y0032701D01*
X0240157Y0050417D02*
X0245078Y0055339D01*
X0257612Y0061411D02*
X0264763Y0053862D01*
X0280019Y0053862D01*
X0281736Y0051653D01*
X0281736Y0051530D01*
X0298228Y0073055D02*
X0316928Y0054354D01*
X0316850Y0054276D01*
X0316850Y0014000D01*
X0316928Y0013921D01*
X0316928Y0007602D01*
X0340058Y0007602D01*
X0340058Y0013587D01*
X0340472Y0014000D01*
X0340058Y0007602D02*
X0365157Y0007602D01*
X0364094Y0008665D01*
X0364094Y0014000D01*
X0365157Y0007602D02*
X0381397Y0007602D01*
X0387794Y0014000D01*
X0387716Y0014000D01*
X0385826Y0034669D02*
X0381889Y0038606D01*
X0381889Y0050417D01*
X0386810Y0055339D01*
X0393700Y0062228D01*
X0393700Y0078961D01*
X0402558Y0087819D01*
X0402558Y0097169D01*
X0382873Y0116854D01*
X0382873Y0124236D01*
X0378444Y0128665D01*
X0378444Y0137524D01*
X0388287Y0147366D01*
X0387794Y0147858D01*
X0392716Y0144906D02*
X0422735Y0144906D01*
X0423720Y0143921D01*
X0423739Y0143902D01*
X0423739Y0143267D01*
X0423720Y0143286D01*
X0450787Y0133094D02*
X0450787Y0164591D01*
X0439960Y0175417D01*
X0437991Y0175417D01*
X0432578Y0180831D01*
X0432578Y0188213D01*
X0434960Y0190594D01*
X0434960Y0222661D01*
X0429054Y0228567D01*
X0370078Y0228567D01*
X0369586Y0228154D01*
X0364094Y0222661D01*
X0364172Y0222661D01*
X0369094Y0217740D01*
X0369094Y0196087D01*
X0361220Y0188213D01*
X0361220Y0181815D01*
X0366633Y0176402D01*
X0368109Y0176402D01*
X0369094Y0175417D01*
X0361220Y0167543D01*
X0361220Y0159669D01*
X0364172Y0156717D01*
X0364094Y0120299D01*
X0364172Y0120220D01*
X0364172Y0089787D01*
X0364094Y0089709D02*
X0364094Y0120299D01*
X0382873Y0130142D02*
X0382873Y0135063D01*
X0392716Y0144906D01*
X0382873Y0130142D02*
X0387302Y0125713D01*
X0387302Y0118331D01*
X0406987Y0098646D01*
X0406987Y0085358D01*
X0397637Y0076008D01*
X0397637Y0063213D01*
X0399835Y0060892D01*
X0399746Y0060892D01*
X0387794Y0049433D01*
X0387794Y0045496D01*
X0387883Y0045585D01*
X0399835Y0060892D02*
X0406495Y0053862D01*
X0421751Y0053862D01*
X0423469Y0051653D01*
X0423469Y0051530D01*
X0439960Y0073055D02*
X0441928Y0073055D01*
X0448818Y0079945D01*
X0448818Y0106520D01*
X0452263Y0109965D01*
X0452263Y0131618D01*
X0450787Y0133094D01*
X0435039Y0120791D02*
X0435039Y0120299D01*
X0434960Y0120299D01*
X0435039Y0120299D02*
X0448818Y0106520D01*
X0369094Y0073055D02*
X0367125Y0073055D01*
X0361220Y0078961D01*
X0361220Y0079453D01*
X0306594Y0079453D01*
X0300196Y0073055D01*
X0298228Y0073055D01*
X0306594Y0079453D02*
X0307086Y0079945D01*
X0307086Y0106520D01*
X0293306Y0120299D01*
X0293228Y0120299D01*
X0293306Y0120299D02*
X0293306Y0120791D01*
X0282007Y0143267D02*
X0282007Y0143902D01*
X0281987Y0143921D01*
X0281987Y0143429D01*
X0281987Y0143286D02*
X0282007Y0143267D01*
X0246554Y0147366D02*
X0246062Y0147858D01*
X0224409Y0131618D02*
X0224409Y0122346D01*
X0222361Y0120299D01*
X0222361Y0089709D01*
X0219487Y0086835D01*
X0222361Y0014000D02*
X0222440Y0013921D01*
X0222440Y0007602D01*
X0245570Y0007602D01*
X0245570Y0013587D01*
X0245983Y0014000D01*
X0245570Y0007602D02*
X0269192Y0007602D01*
X0269192Y0013587D01*
X0269606Y0014000D01*
X0269192Y0007602D02*
X0293306Y0007602D01*
X0293306Y0013921D01*
X0293228Y0014000D01*
X0293306Y0007602D02*
X0316928Y0007602D01*
X0222440Y0007602D02*
X0199310Y0007602D01*
X0199310Y0013429D01*
X0198739Y0014000D01*
X0199310Y0007602D02*
X0175196Y0007602D01*
X0175196Y0013921D01*
X0175117Y0014000D01*
X0175196Y0007602D02*
X0151574Y0007602D01*
X0151574Y0013921D01*
X0151495Y0014000D01*
X0151574Y0007602D02*
X0134271Y0007602D01*
X0127873Y0014000D01*
X0048720Y0064689D02*
X0047243Y0066165D01*
X0047243Y0100122D01*
X0041338Y0100122D01*
X0047243Y0100122D02*
X0047243Y0101598D01*
X0062007Y0116362D01*
X0062007Y0120299D01*
X0039861Y0142445D01*
X0022637Y0159669D01*
X0021653Y0160161D01*
X0017716Y0160161D01*
X0015255Y0157701D01*
X0015255Y0152780D01*
X0017716Y0150319D01*
X0019192Y0150319D01*
X0025590Y0143921D01*
X0025590Y0135555D01*
X0019192Y0129157D01*
X0014763Y0129157D01*
X0029527Y0130142D02*
X0045767Y0130142D01*
X0057578Y0118331D01*
X0029527Y0130142D02*
X0029527Y0103567D01*
X0029527Y0130142D02*
X0029527Y0145398D01*
X0019684Y0155240D01*
X0022637Y0159669D02*
X0022637Y0196087D01*
X0020176Y0206913D02*
X0010826Y0197563D01*
X0010826Y0189197D01*
X0012794Y0187228D01*
X0012794Y0171480D01*
X0012302Y0171480D01*
X0012302Y0170988D01*
X0035924Y0199039D02*
X0035924Y0199226D01*
X0035954Y0199256D01*
X0045107Y0199256D01*
X0035924Y0199039D02*
X0028050Y0206913D01*
X0020176Y0206913D01*
X0018208Y0216264D02*
X0038100Y0216264D01*
X0045107Y0209256D01*
X0039783Y0142524D02*
X0039861Y0142445D01*
X0249507Y0177386D02*
X0256397Y0177386D01*
X0256397Y0195594D01*
X0364094Y0089709D02*
X0361220Y0086835D01*
X0361220Y0079453D01*
D22*
X0386810Y0055339D02*
X0387162Y0054987D01*
X0245430Y0054987D02*
X0245078Y0055339D01*
M02*
