G75*
%MOIN*%
%OFA0B0*%
%FSLAX25Y25*%
%IPPOS*%
%LPD*%
%AMOC8*
5,1,8,0,0,1.08239X$1,22.5*
%
%ADD10C,0.13780*%
%ADD11C,0.10472*%
%ADD12R,0.06000X0.06000*%
%ADD13C,0.06000*%
%ADD14OC8,0.06000*%
%ADD15C,0.06299*%
%ADD16C,0.05315*%
%ADD17C,0.25984*%
%ADD18C,0.04000*%
D10*
X0085629Y0017937D03*
X0121062Y0124236D03*
X0404527Y0124236D03*
D11*
X0439960Y0082285D03*
X0369094Y0082285D03*
X0298228Y0082285D03*
X0227361Y0082285D03*
X0156495Y0082285D03*
X0085629Y0082285D03*
X0085629Y0184647D03*
X0156495Y0184647D03*
X0369094Y0184647D03*
X0439960Y0184647D03*
D12*
X0284291Y0212327D03*
X0045107Y0209256D03*
D13*
X0045107Y0199256D03*
X0045107Y0189256D03*
X0045107Y0179256D03*
X0045107Y0169256D03*
X0080629Y0120299D03*
X0151495Y0120299D03*
X0222361Y0120299D03*
X0257794Y0120299D03*
X0293228Y0120299D03*
X0364094Y0120299D03*
X0434960Y0120299D03*
X0268124Y0195212D03*
X0240251Y0185392D03*
X0244291Y0212327D03*
X0254291Y0212327D03*
X0264291Y0212327D03*
X0274291Y0212327D03*
X0274291Y0222327D03*
X0284291Y0222327D03*
X0264291Y0222327D03*
X0254291Y0222327D03*
X0244291Y0222327D03*
X0234291Y0222327D03*
X0224291Y0222327D03*
X0214291Y0222327D03*
X0204291Y0222327D03*
X0194291Y0222327D03*
X0194291Y0212327D03*
X0204291Y0212327D03*
X0214291Y0212327D03*
X0224291Y0212327D03*
X0234291Y0212327D03*
X0151495Y0222661D03*
X0080629Y0222661D03*
X0364094Y0222661D03*
X0434960Y0222661D03*
X0061023Y0035240D03*
X0127873Y0014000D03*
X0151495Y0014000D03*
X0175117Y0014000D03*
X0198739Y0014000D03*
X0222361Y0014000D03*
X0245983Y0014000D03*
X0269606Y0014000D03*
X0293228Y0014000D03*
X0316850Y0014000D03*
X0340472Y0014000D03*
X0364094Y0014000D03*
X0387716Y0014000D03*
D14*
X0397716Y0014000D03*
X0374094Y0014000D03*
X0350472Y0014000D03*
X0326850Y0014000D03*
X0303228Y0014000D03*
X0279606Y0014000D03*
X0255983Y0014000D03*
X0232361Y0014000D03*
X0208739Y0014000D03*
X0185117Y0014000D03*
X0161495Y0014000D03*
X0137873Y0014000D03*
X0061023Y0025240D03*
X0090629Y0120299D03*
X0161495Y0120299D03*
X0232361Y0120299D03*
X0267794Y0120299D03*
X0303228Y0120299D03*
X0374094Y0120299D03*
X0444960Y0120299D03*
X0268124Y0185212D03*
X0240251Y0195392D03*
X0161495Y0222661D03*
X0090629Y0222661D03*
X0374094Y0222661D03*
X0444960Y0222661D03*
D15*
X0454960Y0193134D03*
X0424960Y0193134D03*
X0429960Y0175417D03*
X0439960Y0175417D03*
X0449960Y0175417D03*
X0384094Y0193134D03*
X0354094Y0193134D03*
X0359094Y0175417D03*
X0369094Y0175417D03*
X0379094Y0175417D03*
X0384094Y0090772D03*
X0354094Y0090772D03*
X0359094Y0073055D03*
X0369094Y0073055D03*
X0379094Y0073055D03*
X0424960Y0090772D03*
X0454960Y0090772D03*
X0449960Y0073055D03*
X0439960Y0073055D03*
X0429960Y0073055D03*
X0313228Y0090772D03*
X0283228Y0090772D03*
X0288228Y0073055D03*
X0298228Y0073055D03*
X0308228Y0073055D03*
X0242361Y0090772D03*
X0212361Y0090772D03*
X0217361Y0073055D03*
X0227361Y0073055D03*
X0237361Y0073055D03*
X0171495Y0090772D03*
X0141495Y0090772D03*
X0146495Y0073055D03*
X0156495Y0073055D03*
X0166495Y0073055D03*
X0100629Y0090772D03*
X0070629Y0090772D03*
X0075629Y0073055D03*
X0085629Y0073055D03*
X0095629Y0073055D03*
X0095629Y0175417D03*
X0085629Y0175417D03*
X0075629Y0175417D03*
X0070629Y0193134D03*
X0100629Y0193134D03*
X0141495Y0193134D03*
X0171495Y0193134D03*
X0166495Y0175417D03*
X0156495Y0175417D03*
X0146495Y0175417D03*
D16*
X0131495Y0150417D03*
X0110629Y0150417D03*
X0060629Y0150417D03*
X0060629Y0200417D03*
X0110629Y0200417D03*
X0131495Y0200417D03*
X0181495Y0200417D03*
X0181495Y0150417D03*
X0181495Y0098055D03*
X0202361Y0098055D03*
X0252361Y0098055D03*
X0273228Y0098055D03*
X0323228Y0098055D03*
X0344094Y0098055D03*
X0394094Y0098055D03*
X0414960Y0098055D03*
X0464960Y0098055D03*
X0464960Y0048055D03*
X0414960Y0048055D03*
X0394094Y0048055D03*
X0344094Y0048055D03*
X0323228Y0048055D03*
X0273228Y0048055D03*
X0252361Y0048055D03*
X0202361Y0048055D03*
X0181495Y0048055D03*
X0131495Y0048055D03*
X0110629Y0048055D03*
X0060629Y0048055D03*
X0060629Y0098055D03*
X0110629Y0098055D03*
X0131495Y0098055D03*
X0344094Y0150417D03*
X0394094Y0150417D03*
X0414960Y0150417D03*
X0464960Y0150417D03*
X0464960Y0200417D03*
X0414960Y0200417D03*
X0394094Y0200417D03*
X0344094Y0200417D03*
D17*
X0440452Y0017937D03*
D18*
X0018208Y0011047D03*
X0020669Y0019906D03*
X0012794Y0019906D03*
X0020669Y0027780D03*
X0027558Y0042051D03*
X0053641Y0057307D03*
X0048720Y0064689D03*
X0069389Y0048449D03*
X0079724Y0048941D03*
X0092519Y0047957D03*
X0103346Y0055339D03*
X0103838Y0065673D03*
X0119094Y0072563D03*
X0124015Y0066657D03*
X0140004Y0051530D03*
X0160154Y0055342D03*
X0208661Y0053370D03*
X0213582Y0056323D03*
X0245078Y0055339D03*
X0246554Y0045585D03*
X0233759Y0037130D03*
X0242125Y0032701D03*
X0251476Y0025811D03*
X0228838Y0031224D03*
X0222932Y0036638D03*
X0281736Y0051530D03*
X0301886Y0055342D03*
X0265747Y0066657D03*
X0263287Y0076008D03*
X0245570Y0065673D03*
X0233759Y0102583D03*
X0205265Y0106657D03*
X0173228Y0099630D03*
X0163877Y0107504D03*
X0159940Y0131618D03*
X0152066Y0135063D03*
X0145669Y0139984D03*
X0140275Y0143267D03*
X0135826Y0139492D03*
X0140344Y0153892D03*
X0159940Y0157701D03*
X0165846Y0162622D03*
X0172735Y0157701D03*
X0176672Y0163606D03*
X0183562Y0163114D03*
X0191928Y0155732D03*
X0238188Y0137031D03*
X0246554Y0147366D03*
X0253936Y0147858D03*
X0281987Y0143921D03*
X0287401Y0139984D03*
X0294291Y0134571D03*
X0310531Y0130142D03*
X0317913Y0128173D03*
X0320373Y0105043D03*
X0349901Y0096185D03*
X0387302Y0065673D03*
X0386810Y0055339D03*
X0387883Y0045585D03*
X0385826Y0034669D03*
X0375491Y0036146D03*
X0370570Y0031224D03*
X0365157Y0037130D03*
X0350393Y0053370D03*
X0355314Y0056815D03*
X0407480Y0066657D03*
X0405019Y0076008D03*
X0443619Y0055342D03*
X0423469Y0051530D03*
X0394192Y0026303D03*
X0456692Y0099630D03*
X0447342Y0130142D03*
X0443405Y0135063D03*
X0435531Y0135063D03*
X0421751Y0133587D03*
X0423720Y0143921D03*
X0443405Y0157701D03*
X0455708Y0163606D03*
X0407480Y0169512D03*
X0404035Y0175417D03*
X0387302Y0167051D03*
X0370078Y0167543D03*
X0367125Y0162130D03*
X0388287Y0147366D03*
X0390747Y0136539D03*
X0388779Y0130634D03*
X0374015Y0137031D03*
X0359251Y0129650D03*
X0455708Y0135555D03*
X0383857Y0180831D03*
X0383857Y0186736D03*
X0363188Y0197071D03*
X0343503Y0192642D03*
X0349901Y0183291D03*
X0422735Y0199531D03*
X0428149Y0208085D03*
X0440452Y0205437D03*
X0262794Y0189689D03*
X0248031Y0189689D03*
X0249507Y0177386D03*
X0256397Y0177386D03*
X0195865Y0183783D03*
X0157480Y0207406D03*
X0150590Y0200024D03*
X0137794Y0199039D03*
X0144684Y0212022D03*
X0171259Y0223154D03*
X0102854Y0199399D03*
X0069881Y0209866D03*
X0035954Y0199256D03*
X0022637Y0196087D03*
X0018208Y0192642D03*
X0007873Y0185260D03*
X0012302Y0170988D03*
X0010826Y0163114D03*
X0019684Y0155240D03*
X0017716Y0141953D03*
X0039861Y0142445D03*
X0014763Y0129157D03*
X0014763Y0119807D03*
X0037401Y0120299D03*
X0041338Y0125220D03*
X0057578Y0118331D03*
X0029527Y0103567D03*
X0041338Y0100122D03*
X0066436Y0096185D03*
X0014763Y0095201D03*
X0096456Y0135555D03*
X0090550Y0142445D03*
X0104822Y0147366D03*
X0102735Y0167917D03*
X0119586Y0175417D03*
X0124015Y0169512D03*
X0062499Y0177386D03*
X0063483Y0190673D03*
X0035924Y0177386D03*
X0023129Y0211343D03*
X0018208Y0216264D03*
X0219487Y0129650D03*
M02*
