G75*
%MOIN*%
%OFA0B0*%
%FSLAX25Y25*%
%IPPOS*%
%LPD*%
%AMOC8*
5,1,8,0,0,1.08239X$1,22.5*
%
%ADD10C,0.01600*%
%ADD11C,0.00000*%
%ADD12C,0.00400*%
%ADD13C,0.00600*%
%ADD14C,0.00500*%
%ADD15R,0.02000X0.02000*%
D10*
X0001800Y0003425D02*
X0001800Y0135315D01*
X0316761Y0135315D01*
X0316761Y0003425D01*
X0001800Y0003425D01*
D11*
X0101406Y0052638D02*
X0101408Y0052802D01*
X0101414Y0052966D01*
X0101424Y0053130D01*
X0101438Y0053294D01*
X0101456Y0053457D01*
X0101478Y0053620D01*
X0101505Y0053782D01*
X0101535Y0053944D01*
X0101569Y0054104D01*
X0101607Y0054264D01*
X0101648Y0054423D01*
X0101694Y0054581D01*
X0101744Y0054737D01*
X0101797Y0054893D01*
X0101854Y0055047D01*
X0101915Y0055199D01*
X0101980Y0055350D01*
X0102049Y0055500D01*
X0102121Y0055647D01*
X0102196Y0055793D01*
X0102276Y0055937D01*
X0102358Y0056079D01*
X0102444Y0056219D01*
X0102534Y0056356D01*
X0102627Y0056492D01*
X0102723Y0056625D01*
X0102823Y0056756D01*
X0102925Y0056884D01*
X0103031Y0057010D01*
X0103140Y0057133D01*
X0103252Y0057253D01*
X0103366Y0057371D01*
X0103484Y0057485D01*
X0103604Y0057597D01*
X0103727Y0057706D01*
X0103853Y0057812D01*
X0103981Y0057914D01*
X0104112Y0058014D01*
X0104245Y0058110D01*
X0104381Y0058203D01*
X0104518Y0058293D01*
X0104658Y0058379D01*
X0104800Y0058461D01*
X0104944Y0058541D01*
X0105090Y0058616D01*
X0105237Y0058688D01*
X0105387Y0058757D01*
X0105538Y0058822D01*
X0105690Y0058883D01*
X0105844Y0058940D01*
X0106000Y0058993D01*
X0106156Y0059043D01*
X0106314Y0059089D01*
X0106473Y0059130D01*
X0106633Y0059168D01*
X0106793Y0059202D01*
X0106955Y0059232D01*
X0107117Y0059259D01*
X0107280Y0059281D01*
X0107443Y0059299D01*
X0107607Y0059313D01*
X0107771Y0059323D01*
X0107935Y0059329D01*
X0108099Y0059331D01*
X0108263Y0059329D01*
X0108427Y0059323D01*
X0108591Y0059313D01*
X0108755Y0059299D01*
X0108918Y0059281D01*
X0109081Y0059259D01*
X0109243Y0059232D01*
X0109405Y0059202D01*
X0109565Y0059168D01*
X0109725Y0059130D01*
X0109884Y0059089D01*
X0110042Y0059043D01*
X0110198Y0058993D01*
X0110354Y0058940D01*
X0110508Y0058883D01*
X0110660Y0058822D01*
X0110811Y0058757D01*
X0110961Y0058688D01*
X0111108Y0058616D01*
X0111254Y0058541D01*
X0111398Y0058461D01*
X0111540Y0058379D01*
X0111680Y0058293D01*
X0111817Y0058203D01*
X0111953Y0058110D01*
X0112086Y0058014D01*
X0112217Y0057914D01*
X0112345Y0057812D01*
X0112471Y0057706D01*
X0112594Y0057597D01*
X0112714Y0057485D01*
X0112832Y0057371D01*
X0112946Y0057253D01*
X0113058Y0057133D01*
X0113167Y0057010D01*
X0113273Y0056884D01*
X0113375Y0056756D01*
X0113475Y0056625D01*
X0113571Y0056492D01*
X0113664Y0056356D01*
X0113754Y0056219D01*
X0113840Y0056079D01*
X0113922Y0055937D01*
X0114002Y0055793D01*
X0114077Y0055647D01*
X0114149Y0055500D01*
X0114218Y0055350D01*
X0114283Y0055199D01*
X0114344Y0055047D01*
X0114401Y0054893D01*
X0114454Y0054737D01*
X0114504Y0054581D01*
X0114550Y0054423D01*
X0114591Y0054264D01*
X0114629Y0054104D01*
X0114663Y0053944D01*
X0114693Y0053782D01*
X0114720Y0053620D01*
X0114742Y0053457D01*
X0114760Y0053294D01*
X0114774Y0053130D01*
X0114784Y0052966D01*
X0114790Y0052802D01*
X0114792Y0052638D01*
X0114790Y0052474D01*
X0114784Y0052310D01*
X0114774Y0052146D01*
X0114760Y0051982D01*
X0114742Y0051819D01*
X0114720Y0051656D01*
X0114693Y0051494D01*
X0114663Y0051332D01*
X0114629Y0051172D01*
X0114591Y0051012D01*
X0114550Y0050853D01*
X0114504Y0050695D01*
X0114454Y0050539D01*
X0114401Y0050383D01*
X0114344Y0050229D01*
X0114283Y0050077D01*
X0114218Y0049926D01*
X0114149Y0049776D01*
X0114077Y0049629D01*
X0114002Y0049483D01*
X0113922Y0049339D01*
X0113840Y0049197D01*
X0113754Y0049057D01*
X0113664Y0048920D01*
X0113571Y0048784D01*
X0113475Y0048651D01*
X0113375Y0048520D01*
X0113273Y0048392D01*
X0113167Y0048266D01*
X0113058Y0048143D01*
X0112946Y0048023D01*
X0112832Y0047905D01*
X0112714Y0047791D01*
X0112594Y0047679D01*
X0112471Y0047570D01*
X0112345Y0047464D01*
X0112217Y0047362D01*
X0112086Y0047262D01*
X0111953Y0047166D01*
X0111817Y0047073D01*
X0111680Y0046983D01*
X0111540Y0046897D01*
X0111398Y0046815D01*
X0111254Y0046735D01*
X0111108Y0046660D01*
X0110961Y0046588D01*
X0110811Y0046519D01*
X0110660Y0046454D01*
X0110508Y0046393D01*
X0110354Y0046336D01*
X0110198Y0046283D01*
X0110042Y0046233D01*
X0109884Y0046187D01*
X0109725Y0046146D01*
X0109565Y0046108D01*
X0109405Y0046074D01*
X0109243Y0046044D01*
X0109081Y0046017D01*
X0108918Y0045995D01*
X0108755Y0045977D01*
X0108591Y0045963D01*
X0108427Y0045953D01*
X0108263Y0045947D01*
X0108099Y0045945D01*
X0107935Y0045947D01*
X0107771Y0045953D01*
X0107607Y0045963D01*
X0107443Y0045977D01*
X0107280Y0045995D01*
X0107117Y0046017D01*
X0106955Y0046044D01*
X0106793Y0046074D01*
X0106633Y0046108D01*
X0106473Y0046146D01*
X0106314Y0046187D01*
X0106156Y0046233D01*
X0106000Y0046283D01*
X0105844Y0046336D01*
X0105690Y0046393D01*
X0105538Y0046454D01*
X0105387Y0046519D01*
X0105237Y0046588D01*
X0105090Y0046660D01*
X0104944Y0046735D01*
X0104800Y0046815D01*
X0104658Y0046897D01*
X0104518Y0046983D01*
X0104381Y0047073D01*
X0104245Y0047166D01*
X0104112Y0047262D01*
X0103981Y0047362D01*
X0103853Y0047464D01*
X0103727Y0047570D01*
X0103604Y0047679D01*
X0103484Y0047791D01*
X0103366Y0047905D01*
X0103252Y0048023D01*
X0103140Y0048143D01*
X0103031Y0048266D01*
X0102925Y0048392D01*
X0102823Y0048520D01*
X0102723Y0048651D01*
X0102627Y0048784D01*
X0102534Y0048920D01*
X0102444Y0049057D01*
X0102358Y0049197D01*
X0102276Y0049339D01*
X0102196Y0049483D01*
X0102121Y0049629D01*
X0102049Y0049776D01*
X0101980Y0049926D01*
X0101915Y0050077D01*
X0101854Y0050229D01*
X0101797Y0050383D01*
X0101744Y0050539D01*
X0101694Y0050695D01*
X0101648Y0050853D01*
X0101607Y0051012D01*
X0101569Y0051172D01*
X0101535Y0051332D01*
X0101505Y0051494D01*
X0101478Y0051656D01*
X0101456Y0051819D01*
X0101438Y0051982D01*
X0101424Y0052146D01*
X0101414Y0052310D01*
X0101408Y0052474D01*
X0101406Y0052638D01*
X0121878Y0068386D02*
X0121880Y0068539D01*
X0121886Y0068693D01*
X0121896Y0068846D01*
X0121910Y0068998D01*
X0121928Y0069151D01*
X0121950Y0069302D01*
X0121975Y0069453D01*
X0122005Y0069604D01*
X0122039Y0069754D01*
X0122076Y0069902D01*
X0122117Y0070050D01*
X0122162Y0070196D01*
X0122211Y0070342D01*
X0122264Y0070486D01*
X0122320Y0070628D01*
X0122380Y0070769D01*
X0122444Y0070909D01*
X0122511Y0071047D01*
X0122582Y0071183D01*
X0122657Y0071317D01*
X0122734Y0071449D01*
X0122816Y0071579D01*
X0122900Y0071707D01*
X0122988Y0071833D01*
X0123079Y0071956D01*
X0123173Y0072077D01*
X0123271Y0072195D01*
X0123371Y0072311D01*
X0123475Y0072424D01*
X0123581Y0072535D01*
X0123690Y0072643D01*
X0123802Y0072748D01*
X0123916Y0072849D01*
X0124034Y0072948D01*
X0124153Y0073044D01*
X0124275Y0073137D01*
X0124400Y0073226D01*
X0124527Y0073313D01*
X0124656Y0073395D01*
X0124787Y0073475D01*
X0124920Y0073551D01*
X0125055Y0073624D01*
X0125192Y0073693D01*
X0125331Y0073758D01*
X0125471Y0073820D01*
X0125613Y0073878D01*
X0125756Y0073933D01*
X0125901Y0073984D01*
X0126047Y0074031D01*
X0126194Y0074074D01*
X0126342Y0074113D01*
X0126491Y0074149D01*
X0126641Y0074180D01*
X0126792Y0074208D01*
X0126943Y0074232D01*
X0127096Y0074252D01*
X0127248Y0074268D01*
X0127401Y0074280D01*
X0127554Y0074288D01*
X0127707Y0074292D01*
X0127861Y0074292D01*
X0128014Y0074288D01*
X0128167Y0074280D01*
X0128320Y0074268D01*
X0128472Y0074252D01*
X0128625Y0074232D01*
X0128776Y0074208D01*
X0128927Y0074180D01*
X0129077Y0074149D01*
X0129226Y0074113D01*
X0129374Y0074074D01*
X0129521Y0074031D01*
X0129667Y0073984D01*
X0129812Y0073933D01*
X0129955Y0073878D01*
X0130097Y0073820D01*
X0130237Y0073758D01*
X0130376Y0073693D01*
X0130513Y0073624D01*
X0130648Y0073551D01*
X0130781Y0073475D01*
X0130912Y0073395D01*
X0131041Y0073313D01*
X0131168Y0073226D01*
X0131293Y0073137D01*
X0131415Y0073044D01*
X0131534Y0072948D01*
X0131652Y0072849D01*
X0131766Y0072748D01*
X0131878Y0072643D01*
X0131987Y0072535D01*
X0132093Y0072424D01*
X0132197Y0072311D01*
X0132297Y0072195D01*
X0132395Y0072077D01*
X0132489Y0071956D01*
X0132580Y0071833D01*
X0132668Y0071707D01*
X0132752Y0071579D01*
X0132834Y0071449D01*
X0132911Y0071317D01*
X0132986Y0071183D01*
X0133057Y0071047D01*
X0133124Y0070909D01*
X0133188Y0070769D01*
X0133248Y0070628D01*
X0133304Y0070486D01*
X0133357Y0070342D01*
X0133406Y0070196D01*
X0133451Y0070050D01*
X0133492Y0069902D01*
X0133529Y0069754D01*
X0133563Y0069604D01*
X0133593Y0069453D01*
X0133618Y0069302D01*
X0133640Y0069151D01*
X0133658Y0068998D01*
X0133672Y0068846D01*
X0133682Y0068693D01*
X0133688Y0068539D01*
X0133690Y0068386D01*
X0133688Y0068233D01*
X0133682Y0068079D01*
X0133672Y0067926D01*
X0133658Y0067774D01*
X0133640Y0067621D01*
X0133618Y0067470D01*
X0133593Y0067319D01*
X0133563Y0067168D01*
X0133529Y0067018D01*
X0133492Y0066870D01*
X0133451Y0066722D01*
X0133406Y0066576D01*
X0133357Y0066430D01*
X0133304Y0066286D01*
X0133248Y0066144D01*
X0133188Y0066003D01*
X0133124Y0065863D01*
X0133057Y0065725D01*
X0132986Y0065589D01*
X0132911Y0065455D01*
X0132834Y0065323D01*
X0132752Y0065193D01*
X0132668Y0065065D01*
X0132580Y0064939D01*
X0132489Y0064816D01*
X0132395Y0064695D01*
X0132297Y0064577D01*
X0132197Y0064461D01*
X0132093Y0064348D01*
X0131987Y0064237D01*
X0131878Y0064129D01*
X0131766Y0064024D01*
X0131652Y0063923D01*
X0131534Y0063824D01*
X0131415Y0063728D01*
X0131293Y0063635D01*
X0131168Y0063546D01*
X0131041Y0063459D01*
X0130912Y0063377D01*
X0130781Y0063297D01*
X0130648Y0063221D01*
X0130513Y0063148D01*
X0130376Y0063079D01*
X0130237Y0063014D01*
X0130097Y0062952D01*
X0129955Y0062894D01*
X0129812Y0062839D01*
X0129667Y0062788D01*
X0129521Y0062741D01*
X0129374Y0062698D01*
X0129226Y0062659D01*
X0129077Y0062623D01*
X0128927Y0062592D01*
X0128776Y0062564D01*
X0128625Y0062540D01*
X0128472Y0062520D01*
X0128320Y0062504D01*
X0128167Y0062492D01*
X0128014Y0062484D01*
X0127861Y0062480D01*
X0127707Y0062480D01*
X0127554Y0062484D01*
X0127401Y0062492D01*
X0127248Y0062504D01*
X0127096Y0062520D01*
X0126943Y0062540D01*
X0126792Y0062564D01*
X0126641Y0062592D01*
X0126491Y0062623D01*
X0126342Y0062659D01*
X0126194Y0062698D01*
X0126047Y0062741D01*
X0125901Y0062788D01*
X0125756Y0062839D01*
X0125613Y0062894D01*
X0125471Y0062952D01*
X0125331Y0063014D01*
X0125192Y0063079D01*
X0125055Y0063148D01*
X0124920Y0063221D01*
X0124787Y0063297D01*
X0124656Y0063377D01*
X0124527Y0063459D01*
X0124400Y0063546D01*
X0124275Y0063635D01*
X0124153Y0063728D01*
X0124034Y0063824D01*
X0123916Y0063923D01*
X0123802Y0064024D01*
X0123690Y0064129D01*
X0123581Y0064237D01*
X0123475Y0064348D01*
X0123371Y0064461D01*
X0123271Y0064577D01*
X0123173Y0064695D01*
X0123079Y0064816D01*
X0122988Y0064939D01*
X0122900Y0065065D01*
X0122816Y0065193D01*
X0122734Y0065323D01*
X0122657Y0065455D01*
X0122582Y0065589D01*
X0122511Y0065725D01*
X0122444Y0065863D01*
X0122380Y0066003D01*
X0122320Y0066144D01*
X0122264Y0066286D01*
X0122211Y0066430D01*
X0122162Y0066576D01*
X0122117Y0066722D01*
X0122076Y0066870D01*
X0122039Y0067018D01*
X0122005Y0067168D01*
X0121975Y0067319D01*
X0121950Y0067470D01*
X0121928Y0067621D01*
X0121910Y0067774D01*
X0121896Y0067926D01*
X0121886Y0068079D01*
X0121880Y0068233D01*
X0121878Y0068386D01*
X0145107Y0068386D02*
X0145111Y0068734D01*
X0145124Y0069081D01*
X0145145Y0069429D01*
X0145175Y0069775D01*
X0145214Y0070121D01*
X0145260Y0070466D01*
X0145316Y0070809D01*
X0145379Y0071151D01*
X0145451Y0071491D01*
X0145532Y0071830D01*
X0145620Y0072166D01*
X0145717Y0072500D01*
X0145822Y0072832D01*
X0145935Y0073161D01*
X0146057Y0073487D01*
X0146186Y0073810D01*
X0146323Y0074129D01*
X0146468Y0074446D01*
X0146620Y0074758D01*
X0146781Y0075067D01*
X0146948Y0075372D01*
X0147123Y0075672D01*
X0147306Y0075969D01*
X0147496Y0076260D01*
X0147692Y0076547D01*
X0147896Y0076829D01*
X0148107Y0077106D01*
X0148324Y0077377D01*
X0148548Y0077643D01*
X0148778Y0077904D01*
X0149015Y0078159D01*
X0149258Y0078408D01*
X0149507Y0078651D01*
X0149762Y0078888D01*
X0150023Y0079118D01*
X0150289Y0079342D01*
X0150560Y0079559D01*
X0150837Y0079770D01*
X0151119Y0079974D01*
X0151406Y0080170D01*
X0151697Y0080360D01*
X0151994Y0080543D01*
X0152294Y0080718D01*
X0152599Y0080885D01*
X0152908Y0081046D01*
X0153220Y0081198D01*
X0153537Y0081343D01*
X0153856Y0081480D01*
X0154179Y0081609D01*
X0154505Y0081731D01*
X0154834Y0081844D01*
X0155166Y0081949D01*
X0155500Y0082046D01*
X0155836Y0082134D01*
X0156175Y0082215D01*
X0156515Y0082287D01*
X0156857Y0082350D01*
X0157200Y0082406D01*
X0157545Y0082452D01*
X0157891Y0082491D01*
X0158237Y0082521D01*
X0158585Y0082542D01*
X0158932Y0082555D01*
X0159280Y0082559D01*
X0159628Y0082555D01*
X0159975Y0082542D01*
X0160323Y0082521D01*
X0160669Y0082491D01*
X0161015Y0082452D01*
X0161360Y0082406D01*
X0161703Y0082350D01*
X0162045Y0082287D01*
X0162385Y0082215D01*
X0162724Y0082134D01*
X0163060Y0082046D01*
X0163394Y0081949D01*
X0163726Y0081844D01*
X0164055Y0081731D01*
X0164381Y0081609D01*
X0164704Y0081480D01*
X0165023Y0081343D01*
X0165340Y0081198D01*
X0165652Y0081046D01*
X0165961Y0080885D01*
X0166266Y0080718D01*
X0166566Y0080543D01*
X0166863Y0080360D01*
X0167154Y0080170D01*
X0167441Y0079974D01*
X0167723Y0079770D01*
X0168000Y0079559D01*
X0168271Y0079342D01*
X0168537Y0079118D01*
X0168798Y0078888D01*
X0169053Y0078651D01*
X0169302Y0078408D01*
X0169545Y0078159D01*
X0169782Y0077904D01*
X0170012Y0077643D01*
X0170236Y0077377D01*
X0170453Y0077106D01*
X0170664Y0076829D01*
X0170868Y0076547D01*
X0171064Y0076260D01*
X0171254Y0075969D01*
X0171437Y0075672D01*
X0171612Y0075372D01*
X0171779Y0075067D01*
X0171940Y0074758D01*
X0172092Y0074446D01*
X0172237Y0074129D01*
X0172374Y0073810D01*
X0172503Y0073487D01*
X0172625Y0073161D01*
X0172738Y0072832D01*
X0172843Y0072500D01*
X0172940Y0072166D01*
X0173028Y0071830D01*
X0173109Y0071491D01*
X0173181Y0071151D01*
X0173244Y0070809D01*
X0173300Y0070466D01*
X0173346Y0070121D01*
X0173385Y0069775D01*
X0173415Y0069429D01*
X0173436Y0069081D01*
X0173449Y0068734D01*
X0173453Y0068386D01*
X0173449Y0068038D01*
X0173436Y0067691D01*
X0173415Y0067343D01*
X0173385Y0066997D01*
X0173346Y0066651D01*
X0173300Y0066306D01*
X0173244Y0065963D01*
X0173181Y0065621D01*
X0173109Y0065281D01*
X0173028Y0064942D01*
X0172940Y0064606D01*
X0172843Y0064272D01*
X0172738Y0063940D01*
X0172625Y0063611D01*
X0172503Y0063285D01*
X0172374Y0062962D01*
X0172237Y0062643D01*
X0172092Y0062326D01*
X0171940Y0062014D01*
X0171779Y0061705D01*
X0171612Y0061400D01*
X0171437Y0061100D01*
X0171254Y0060803D01*
X0171064Y0060512D01*
X0170868Y0060225D01*
X0170664Y0059943D01*
X0170453Y0059666D01*
X0170236Y0059395D01*
X0170012Y0059129D01*
X0169782Y0058868D01*
X0169545Y0058613D01*
X0169302Y0058364D01*
X0169053Y0058121D01*
X0168798Y0057884D01*
X0168537Y0057654D01*
X0168271Y0057430D01*
X0168000Y0057213D01*
X0167723Y0057002D01*
X0167441Y0056798D01*
X0167154Y0056602D01*
X0166863Y0056412D01*
X0166566Y0056229D01*
X0166266Y0056054D01*
X0165961Y0055887D01*
X0165652Y0055726D01*
X0165340Y0055574D01*
X0165023Y0055429D01*
X0164704Y0055292D01*
X0164381Y0055163D01*
X0164055Y0055041D01*
X0163726Y0054928D01*
X0163394Y0054823D01*
X0163060Y0054726D01*
X0162724Y0054638D01*
X0162385Y0054557D01*
X0162045Y0054485D01*
X0161703Y0054422D01*
X0161360Y0054366D01*
X0161015Y0054320D01*
X0160669Y0054281D01*
X0160323Y0054251D01*
X0159975Y0054230D01*
X0159628Y0054217D01*
X0159280Y0054213D01*
X0158932Y0054217D01*
X0158585Y0054230D01*
X0158237Y0054251D01*
X0157891Y0054281D01*
X0157545Y0054320D01*
X0157200Y0054366D01*
X0156857Y0054422D01*
X0156515Y0054485D01*
X0156175Y0054557D01*
X0155836Y0054638D01*
X0155500Y0054726D01*
X0155166Y0054823D01*
X0154834Y0054928D01*
X0154505Y0055041D01*
X0154179Y0055163D01*
X0153856Y0055292D01*
X0153537Y0055429D01*
X0153220Y0055574D01*
X0152908Y0055726D01*
X0152599Y0055887D01*
X0152294Y0056054D01*
X0151994Y0056229D01*
X0151697Y0056412D01*
X0151406Y0056602D01*
X0151119Y0056798D01*
X0150837Y0057002D01*
X0150560Y0057213D01*
X0150289Y0057430D01*
X0150023Y0057654D01*
X0149762Y0057884D01*
X0149507Y0058121D01*
X0149258Y0058364D01*
X0149015Y0058613D01*
X0148778Y0058868D01*
X0148548Y0059129D01*
X0148324Y0059395D01*
X0148107Y0059666D01*
X0147896Y0059943D01*
X0147692Y0060225D01*
X0147496Y0060512D01*
X0147306Y0060803D01*
X0147123Y0061100D01*
X0146948Y0061400D01*
X0146781Y0061705D01*
X0146620Y0062014D01*
X0146468Y0062326D01*
X0146323Y0062643D01*
X0146186Y0062962D01*
X0146057Y0063285D01*
X0145935Y0063611D01*
X0145822Y0063940D01*
X0145717Y0064272D01*
X0145620Y0064606D01*
X0145532Y0064942D01*
X0145451Y0065281D01*
X0145379Y0065621D01*
X0145316Y0065963D01*
X0145260Y0066306D01*
X0145214Y0066651D01*
X0145175Y0066997D01*
X0145145Y0067343D01*
X0145124Y0067691D01*
X0145111Y0068038D01*
X0145107Y0068386D01*
X0203768Y0052638D02*
X0203770Y0052802D01*
X0203776Y0052966D01*
X0203786Y0053130D01*
X0203800Y0053294D01*
X0203818Y0053457D01*
X0203840Y0053620D01*
X0203867Y0053782D01*
X0203897Y0053944D01*
X0203931Y0054104D01*
X0203969Y0054264D01*
X0204010Y0054423D01*
X0204056Y0054581D01*
X0204106Y0054737D01*
X0204159Y0054893D01*
X0204216Y0055047D01*
X0204277Y0055199D01*
X0204342Y0055350D01*
X0204411Y0055500D01*
X0204483Y0055647D01*
X0204558Y0055793D01*
X0204638Y0055937D01*
X0204720Y0056079D01*
X0204806Y0056219D01*
X0204896Y0056356D01*
X0204989Y0056492D01*
X0205085Y0056625D01*
X0205185Y0056756D01*
X0205287Y0056884D01*
X0205393Y0057010D01*
X0205502Y0057133D01*
X0205614Y0057253D01*
X0205728Y0057371D01*
X0205846Y0057485D01*
X0205966Y0057597D01*
X0206089Y0057706D01*
X0206215Y0057812D01*
X0206343Y0057914D01*
X0206474Y0058014D01*
X0206607Y0058110D01*
X0206743Y0058203D01*
X0206880Y0058293D01*
X0207020Y0058379D01*
X0207162Y0058461D01*
X0207306Y0058541D01*
X0207452Y0058616D01*
X0207599Y0058688D01*
X0207749Y0058757D01*
X0207900Y0058822D01*
X0208052Y0058883D01*
X0208206Y0058940D01*
X0208362Y0058993D01*
X0208518Y0059043D01*
X0208676Y0059089D01*
X0208835Y0059130D01*
X0208995Y0059168D01*
X0209155Y0059202D01*
X0209317Y0059232D01*
X0209479Y0059259D01*
X0209642Y0059281D01*
X0209805Y0059299D01*
X0209969Y0059313D01*
X0210133Y0059323D01*
X0210297Y0059329D01*
X0210461Y0059331D01*
X0210625Y0059329D01*
X0210789Y0059323D01*
X0210953Y0059313D01*
X0211117Y0059299D01*
X0211280Y0059281D01*
X0211443Y0059259D01*
X0211605Y0059232D01*
X0211767Y0059202D01*
X0211927Y0059168D01*
X0212087Y0059130D01*
X0212246Y0059089D01*
X0212404Y0059043D01*
X0212560Y0058993D01*
X0212716Y0058940D01*
X0212870Y0058883D01*
X0213022Y0058822D01*
X0213173Y0058757D01*
X0213323Y0058688D01*
X0213470Y0058616D01*
X0213616Y0058541D01*
X0213760Y0058461D01*
X0213902Y0058379D01*
X0214042Y0058293D01*
X0214179Y0058203D01*
X0214315Y0058110D01*
X0214448Y0058014D01*
X0214579Y0057914D01*
X0214707Y0057812D01*
X0214833Y0057706D01*
X0214956Y0057597D01*
X0215076Y0057485D01*
X0215194Y0057371D01*
X0215308Y0057253D01*
X0215420Y0057133D01*
X0215529Y0057010D01*
X0215635Y0056884D01*
X0215737Y0056756D01*
X0215837Y0056625D01*
X0215933Y0056492D01*
X0216026Y0056356D01*
X0216116Y0056219D01*
X0216202Y0056079D01*
X0216284Y0055937D01*
X0216364Y0055793D01*
X0216439Y0055647D01*
X0216511Y0055500D01*
X0216580Y0055350D01*
X0216645Y0055199D01*
X0216706Y0055047D01*
X0216763Y0054893D01*
X0216816Y0054737D01*
X0216866Y0054581D01*
X0216912Y0054423D01*
X0216953Y0054264D01*
X0216991Y0054104D01*
X0217025Y0053944D01*
X0217055Y0053782D01*
X0217082Y0053620D01*
X0217104Y0053457D01*
X0217122Y0053294D01*
X0217136Y0053130D01*
X0217146Y0052966D01*
X0217152Y0052802D01*
X0217154Y0052638D01*
X0217152Y0052474D01*
X0217146Y0052310D01*
X0217136Y0052146D01*
X0217122Y0051982D01*
X0217104Y0051819D01*
X0217082Y0051656D01*
X0217055Y0051494D01*
X0217025Y0051332D01*
X0216991Y0051172D01*
X0216953Y0051012D01*
X0216912Y0050853D01*
X0216866Y0050695D01*
X0216816Y0050539D01*
X0216763Y0050383D01*
X0216706Y0050229D01*
X0216645Y0050077D01*
X0216580Y0049926D01*
X0216511Y0049776D01*
X0216439Y0049629D01*
X0216364Y0049483D01*
X0216284Y0049339D01*
X0216202Y0049197D01*
X0216116Y0049057D01*
X0216026Y0048920D01*
X0215933Y0048784D01*
X0215837Y0048651D01*
X0215737Y0048520D01*
X0215635Y0048392D01*
X0215529Y0048266D01*
X0215420Y0048143D01*
X0215308Y0048023D01*
X0215194Y0047905D01*
X0215076Y0047791D01*
X0214956Y0047679D01*
X0214833Y0047570D01*
X0214707Y0047464D01*
X0214579Y0047362D01*
X0214448Y0047262D01*
X0214315Y0047166D01*
X0214179Y0047073D01*
X0214042Y0046983D01*
X0213902Y0046897D01*
X0213760Y0046815D01*
X0213616Y0046735D01*
X0213470Y0046660D01*
X0213323Y0046588D01*
X0213173Y0046519D01*
X0213022Y0046454D01*
X0212870Y0046393D01*
X0212716Y0046336D01*
X0212560Y0046283D01*
X0212404Y0046233D01*
X0212246Y0046187D01*
X0212087Y0046146D01*
X0211927Y0046108D01*
X0211767Y0046074D01*
X0211605Y0046044D01*
X0211443Y0046017D01*
X0211280Y0045995D01*
X0211117Y0045977D01*
X0210953Y0045963D01*
X0210789Y0045953D01*
X0210625Y0045947D01*
X0210461Y0045945D01*
X0210297Y0045947D01*
X0210133Y0045953D01*
X0209969Y0045963D01*
X0209805Y0045977D01*
X0209642Y0045995D01*
X0209479Y0046017D01*
X0209317Y0046044D01*
X0209155Y0046074D01*
X0208995Y0046108D01*
X0208835Y0046146D01*
X0208676Y0046187D01*
X0208518Y0046233D01*
X0208362Y0046283D01*
X0208206Y0046336D01*
X0208052Y0046393D01*
X0207900Y0046454D01*
X0207749Y0046519D01*
X0207599Y0046588D01*
X0207452Y0046660D01*
X0207306Y0046735D01*
X0207162Y0046815D01*
X0207020Y0046897D01*
X0206880Y0046983D01*
X0206743Y0047073D01*
X0206607Y0047166D01*
X0206474Y0047262D01*
X0206343Y0047362D01*
X0206215Y0047464D01*
X0206089Y0047570D01*
X0205966Y0047679D01*
X0205846Y0047791D01*
X0205728Y0047905D01*
X0205614Y0048023D01*
X0205502Y0048143D01*
X0205393Y0048266D01*
X0205287Y0048392D01*
X0205185Y0048520D01*
X0205085Y0048651D01*
X0204989Y0048784D01*
X0204896Y0048920D01*
X0204806Y0049057D01*
X0204720Y0049197D01*
X0204638Y0049339D01*
X0204558Y0049483D01*
X0204483Y0049629D01*
X0204411Y0049776D01*
X0204342Y0049926D01*
X0204277Y0050077D01*
X0204216Y0050229D01*
X0204159Y0050383D01*
X0204106Y0050539D01*
X0204056Y0050695D01*
X0204010Y0050853D01*
X0203969Y0051012D01*
X0203931Y0051172D01*
X0203897Y0051332D01*
X0203867Y0051494D01*
X0203840Y0051656D01*
X0203818Y0051819D01*
X0203800Y0051982D01*
X0203786Y0052146D01*
X0203776Y0052310D01*
X0203770Y0052474D01*
X0203768Y0052638D01*
X0224240Y0068386D02*
X0224242Y0068539D01*
X0224248Y0068693D01*
X0224258Y0068846D01*
X0224272Y0068998D01*
X0224290Y0069151D01*
X0224312Y0069302D01*
X0224337Y0069453D01*
X0224367Y0069604D01*
X0224401Y0069754D01*
X0224438Y0069902D01*
X0224479Y0070050D01*
X0224524Y0070196D01*
X0224573Y0070342D01*
X0224626Y0070486D01*
X0224682Y0070628D01*
X0224742Y0070769D01*
X0224806Y0070909D01*
X0224873Y0071047D01*
X0224944Y0071183D01*
X0225019Y0071317D01*
X0225096Y0071449D01*
X0225178Y0071579D01*
X0225262Y0071707D01*
X0225350Y0071833D01*
X0225441Y0071956D01*
X0225535Y0072077D01*
X0225633Y0072195D01*
X0225733Y0072311D01*
X0225837Y0072424D01*
X0225943Y0072535D01*
X0226052Y0072643D01*
X0226164Y0072748D01*
X0226278Y0072849D01*
X0226396Y0072948D01*
X0226515Y0073044D01*
X0226637Y0073137D01*
X0226762Y0073226D01*
X0226889Y0073313D01*
X0227018Y0073395D01*
X0227149Y0073475D01*
X0227282Y0073551D01*
X0227417Y0073624D01*
X0227554Y0073693D01*
X0227693Y0073758D01*
X0227833Y0073820D01*
X0227975Y0073878D01*
X0228118Y0073933D01*
X0228263Y0073984D01*
X0228409Y0074031D01*
X0228556Y0074074D01*
X0228704Y0074113D01*
X0228853Y0074149D01*
X0229003Y0074180D01*
X0229154Y0074208D01*
X0229305Y0074232D01*
X0229458Y0074252D01*
X0229610Y0074268D01*
X0229763Y0074280D01*
X0229916Y0074288D01*
X0230069Y0074292D01*
X0230223Y0074292D01*
X0230376Y0074288D01*
X0230529Y0074280D01*
X0230682Y0074268D01*
X0230834Y0074252D01*
X0230987Y0074232D01*
X0231138Y0074208D01*
X0231289Y0074180D01*
X0231439Y0074149D01*
X0231588Y0074113D01*
X0231736Y0074074D01*
X0231883Y0074031D01*
X0232029Y0073984D01*
X0232174Y0073933D01*
X0232317Y0073878D01*
X0232459Y0073820D01*
X0232599Y0073758D01*
X0232738Y0073693D01*
X0232875Y0073624D01*
X0233010Y0073551D01*
X0233143Y0073475D01*
X0233274Y0073395D01*
X0233403Y0073313D01*
X0233530Y0073226D01*
X0233655Y0073137D01*
X0233777Y0073044D01*
X0233896Y0072948D01*
X0234014Y0072849D01*
X0234128Y0072748D01*
X0234240Y0072643D01*
X0234349Y0072535D01*
X0234455Y0072424D01*
X0234559Y0072311D01*
X0234659Y0072195D01*
X0234757Y0072077D01*
X0234851Y0071956D01*
X0234942Y0071833D01*
X0235030Y0071707D01*
X0235114Y0071579D01*
X0235196Y0071449D01*
X0235273Y0071317D01*
X0235348Y0071183D01*
X0235419Y0071047D01*
X0235486Y0070909D01*
X0235550Y0070769D01*
X0235610Y0070628D01*
X0235666Y0070486D01*
X0235719Y0070342D01*
X0235768Y0070196D01*
X0235813Y0070050D01*
X0235854Y0069902D01*
X0235891Y0069754D01*
X0235925Y0069604D01*
X0235955Y0069453D01*
X0235980Y0069302D01*
X0236002Y0069151D01*
X0236020Y0068998D01*
X0236034Y0068846D01*
X0236044Y0068693D01*
X0236050Y0068539D01*
X0236052Y0068386D01*
X0236050Y0068233D01*
X0236044Y0068079D01*
X0236034Y0067926D01*
X0236020Y0067774D01*
X0236002Y0067621D01*
X0235980Y0067470D01*
X0235955Y0067319D01*
X0235925Y0067168D01*
X0235891Y0067018D01*
X0235854Y0066870D01*
X0235813Y0066722D01*
X0235768Y0066576D01*
X0235719Y0066430D01*
X0235666Y0066286D01*
X0235610Y0066144D01*
X0235550Y0066003D01*
X0235486Y0065863D01*
X0235419Y0065725D01*
X0235348Y0065589D01*
X0235273Y0065455D01*
X0235196Y0065323D01*
X0235114Y0065193D01*
X0235030Y0065065D01*
X0234942Y0064939D01*
X0234851Y0064816D01*
X0234757Y0064695D01*
X0234659Y0064577D01*
X0234559Y0064461D01*
X0234455Y0064348D01*
X0234349Y0064237D01*
X0234240Y0064129D01*
X0234128Y0064024D01*
X0234014Y0063923D01*
X0233896Y0063824D01*
X0233777Y0063728D01*
X0233655Y0063635D01*
X0233530Y0063546D01*
X0233403Y0063459D01*
X0233274Y0063377D01*
X0233143Y0063297D01*
X0233010Y0063221D01*
X0232875Y0063148D01*
X0232738Y0063079D01*
X0232599Y0063014D01*
X0232459Y0062952D01*
X0232317Y0062894D01*
X0232174Y0062839D01*
X0232029Y0062788D01*
X0231883Y0062741D01*
X0231736Y0062698D01*
X0231588Y0062659D01*
X0231439Y0062623D01*
X0231289Y0062592D01*
X0231138Y0062564D01*
X0230987Y0062540D01*
X0230834Y0062520D01*
X0230682Y0062504D01*
X0230529Y0062492D01*
X0230376Y0062484D01*
X0230223Y0062480D01*
X0230069Y0062480D01*
X0229916Y0062484D01*
X0229763Y0062492D01*
X0229610Y0062504D01*
X0229458Y0062520D01*
X0229305Y0062540D01*
X0229154Y0062564D01*
X0229003Y0062592D01*
X0228853Y0062623D01*
X0228704Y0062659D01*
X0228556Y0062698D01*
X0228409Y0062741D01*
X0228263Y0062788D01*
X0228118Y0062839D01*
X0227975Y0062894D01*
X0227833Y0062952D01*
X0227693Y0063014D01*
X0227554Y0063079D01*
X0227417Y0063148D01*
X0227282Y0063221D01*
X0227149Y0063297D01*
X0227018Y0063377D01*
X0226889Y0063459D01*
X0226762Y0063546D01*
X0226637Y0063635D01*
X0226515Y0063728D01*
X0226396Y0063824D01*
X0226278Y0063923D01*
X0226164Y0064024D01*
X0226052Y0064129D01*
X0225943Y0064237D01*
X0225837Y0064348D01*
X0225733Y0064461D01*
X0225633Y0064577D01*
X0225535Y0064695D01*
X0225441Y0064816D01*
X0225350Y0064939D01*
X0225262Y0065065D01*
X0225178Y0065193D01*
X0225096Y0065323D01*
X0225019Y0065455D01*
X0224944Y0065589D01*
X0224873Y0065725D01*
X0224806Y0065863D01*
X0224742Y0066003D01*
X0224682Y0066144D01*
X0224626Y0066286D01*
X0224573Y0066430D01*
X0224524Y0066576D01*
X0224479Y0066722D01*
X0224438Y0066870D01*
X0224401Y0067018D01*
X0224367Y0067168D01*
X0224337Y0067319D01*
X0224312Y0067470D01*
X0224290Y0067621D01*
X0224272Y0067774D01*
X0224258Y0067926D01*
X0224248Y0068079D01*
X0224242Y0068233D01*
X0224240Y0068386D01*
X0247470Y0068386D02*
X0247474Y0068734D01*
X0247487Y0069081D01*
X0247508Y0069429D01*
X0247538Y0069775D01*
X0247577Y0070121D01*
X0247623Y0070466D01*
X0247679Y0070809D01*
X0247742Y0071151D01*
X0247814Y0071491D01*
X0247895Y0071830D01*
X0247983Y0072166D01*
X0248080Y0072500D01*
X0248185Y0072832D01*
X0248298Y0073161D01*
X0248420Y0073487D01*
X0248549Y0073810D01*
X0248686Y0074129D01*
X0248831Y0074446D01*
X0248983Y0074758D01*
X0249144Y0075067D01*
X0249311Y0075372D01*
X0249486Y0075672D01*
X0249669Y0075969D01*
X0249859Y0076260D01*
X0250055Y0076547D01*
X0250259Y0076829D01*
X0250470Y0077106D01*
X0250687Y0077377D01*
X0250911Y0077643D01*
X0251141Y0077904D01*
X0251378Y0078159D01*
X0251621Y0078408D01*
X0251870Y0078651D01*
X0252125Y0078888D01*
X0252386Y0079118D01*
X0252652Y0079342D01*
X0252923Y0079559D01*
X0253200Y0079770D01*
X0253482Y0079974D01*
X0253769Y0080170D01*
X0254060Y0080360D01*
X0254357Y0080543D01*
X0254657Y0080718D01*
X0254962Y0080885D01*
X0255271Y0081046D01*
X0255583Y0081198D01*
X0255900Y0081343D01*
X0256219Y0081480D01*
X0256542Y0081609D01*
X0256868Y0081731D01*
X0257197Y0081844D01*
X0257529Y0081949D01*
X0257863Y0082046D01*
X0258199Y0082134D01*
X0258538Y0082215D01*
X0258878Y0082287D01*
X0259220Y0082350D01*
X0259563Y0082406D01*
X0259908Y0082452D01*
X0260254Y0082491D01*
X0260600Y0082521D01*
X0260948Y0082542D01*
X0261295Y0082555D01*
X0261643Y0082559D01*
X0261991Y0082555D01*
X0262338Y0082542D01*
X0262686Y0082521D01*
X0263032Y0082491D01*
X0263378Y0082452D01*
X0263723Y0082406D01*
X0264066Y0082350D01*
X0264408Y0082287D01*
X0264748Y0082215D01*
X0265087Y0082134D01*
X0265423Y0082046D01*
X0265757Y0081949D01*
X0266089Y0081844D01*
X0266418Y0081731D01*
X0266744Y0081609D01*
X0267067Y0081480D01*
X0267386Y0081343D01*
X0267703Y0081198D01*
X0268015Y0081046D01*
X0268324Y0080885D01*
X0268629Y0080718D01*
X0268929Y0080543D01*
X0269226Y0080360D01*
X0269517Y0080170D01*
X0269804Y0079974D01*
X0270086Y0079770D01*
X0270363Y0079559D01*
X0270634Y0079342D01*
X0270900Y0079118D01*
X0271161Y0078888D01*
X0271416Y0078651D01*
X0271665Y0078408D01*
X0271908Y0078159D01*
X0272145Y0077904D01*
X0272375Y0077643D01*
X0272599Y0077377D01*
X0272816Y0077106D01*
X0273027Y0076829D01*
X0273231Y0076547D01*
X0273427Y0076260D01*
X0273617Y0075969D01*
X0273800Y0075672D01*
X0273975Y0075372D01*
X0274142Y0075067D01*
X0274303Y0074758D01*
X0274455Y0074446D01*
X0274600Y0074129D01*
X0274737Y0073810D01*
X0274866Y0073487D01*
X0274988Y0073161D01*
X0275101Y0072832D01*
X0275206Y0072500D01*
X0275303Y0072166D01*
X0275391Y0071830D01*
X0275472Y0071491D01*
X0275544Y0071151D01*
X0275607Y0070809D01*
X0275663Y0070466D01*
X0275709Y0070121D01*
X0275748Y0069775D01*
X0275778Y0069429D01*
X0275799Y0069081D01*
X0275812Y0068734D01*
X0275816Y0068386D01*
X0275812Y0068038D01*
X0275799Y0067691D01*
X0275778Y0067343D01*
X0275748Y0066997D01*
X0275709Y0066651D01*
X0275663Y0066306D01*
X0275607Y0065963D01*
X0275544Y0065621D01*
X0275472Y0065281D01*
X0275391Y0064942D01*
X0275303Y0064606D01*
X0275206Y0064272D01*
X0275101Y0063940D01*
X0274988Y0063611D01*
X0274866Y0063285D01*
X0274737Y0062962D01*
X0274600Y0062643D01*
X0274455Y0062326D01*
X0274303Y0062014D01*
X0274142Y0061705D01*
X0273975Y0061400D01*
X0273800Y0061100D01*
X0273617Y0060803D01*
X0273427Y0060512D01*
X0273231Y0060225D01*
X0273027Y0059943D01*
X0272816Y0059666D01*
X0272599Y0059395D01*
X0272375Y0059129D01*
X0272145Y0058868D01*
X0271908Y0058613D01*
X0271665Y0058364D01*
X0271416Y0058121D01*
X0271161Y0057884D01*
X0270900Y0057654D01*
X0270634Y0057430D01*
X0270363Y0057213D01*
X0270086Y0057002D01*
X0269804Y0056798D01*
X0269517Y0056602D01*
X0269226Y0056412D01*
X0268929Y0056229D01*
X0268629Y0056054D01*
X0268324Y0055887D01*
X0268015Y0055726D01*
X0267703Y0055574D01*
X0267386Y0055429D01*
X0267067Y0055292D01*
X0266744Y0055163D01*
X0266418Y0055041D01*
X0266089Y0054928D01*
X0265757Y0054823D01*
X0265423Y0054726D01*
X0265087Y0054638D01*
X0264748Y0054557D01*
X0264408Y0054485D01*
X0264066Y0054422D01*
X0263723Y0054366D01*
X0263378Y0054320D01*
X0263032Y0054281D01*
X0262686Y0054251D01*
X0262338Y0054230D01*
X0261991Y0054217D01*
X0261643Y0054213D01*
X0261295Y0054217D01*
X0260948Y0054230D01*
X0260600Y0054251D01*
X0260254Y0054281D01*
X0259908Y0054320D01*
X0259563Y0054366D01*
X0259220Y0054422D01*
X0258878Y0054485D01*
X0258538Y0054557D01*
X0258199Y0054638D01*
X0257863Y0054726D01*
X0257529Y0054823D01*
X0257197Y0054928D01*
X0256868Y0055041D01*
X0256542Y0055163D01*
X0256219Y0055292D01*
X0255900Y0055429D01*
X0255583Y0055574D01*
X0255271Y0055726D01*
X0254962Y0055887D01*
X0254657Y0056054D01*
X0254357Y0056229D01*
X0254060Y0056412D01*
X0253769Y0056602D01*
X0253482Y0056798D01*
X0253200Y0057002D01*
X0252923Y0057213D01*
X0252652Y0057430D01*
X0252386Y0057654D01*
X0252125Y0057884D01*
X0251870Y0058121D01*
X0251621Y0058364D01*
X0251378Y0058613D01*
X0251141Y0058868D01*
X0250911Y0059129D01*
X0250687Y0059395D01*
X0250470Y0059666D01*
X0250259Y0059943D01*
X0250055Y0060225D01*
X0249859Y0060512D01*
X0249669Y0060803D01*
X0249486Y0061100D01*
X0249311Y0061400D01*
X0249144Y0061705D01*
X0248983Y0062014D01*
X0248831Y0062326D01*
X0248686Y0062643D01*
X0248549Y0062962D01*
X0248420Y0063285D01*
X0248298Y0063611D01*
X0248185Y0063940D01*
X0248080Y0064272D01*
X0247983Y0064606D01*
X0247895Y0064942D01*
X0247814Y0065281D01*
X0247742Y0065621D01*
X0247679Y0065963D01*
X0247623Y0066306D01*
X0247577Y0066651D01*
X0247538Y0066997D01*
X0247508Y0067343D01*
X0247487Y0067691D01*
X0247474Y0068038D01*
X0247470Y0068386D01*
X0042745Y0068386D02*
X0042749Y0068734D01*
X0042762Y0069081D01*
X0042783Y0069429D01*
X0042813Y0069775D01*
X0042852Y0070121D01*
X0042898Y0070466D01*
X0042954Y0070809D01*
X0043017Y0071151D01*
X0043089Y0071491D01*
X0043170Y0071830D01*
X0043258Y0072166D01*
X0043355Y0072500D01*
X0043460Y0072832D01*
X0043573Y0073161D01*
X0043695Y0073487D01*
X0043824Y0073810D01*
X0043961Y0074129D01*
X0044106Y0074446D01*
X0044258Y0074758D01*
X0044419Y0075067D01*
X0044586Y0075372D01*
X0044761Y0075672D01*
X0044944Y0075969D01*
X0045134Y0076260D01*
X0045330Y0076547D01*
X0045534Y0076829D01*
X0045745Y0077106D01*
X0045962Y0077377D01*
X0046186Y0077643D01*
X0046416Y0077904D01*
X0046653Y0078159D01*
X0046896Y0078408D01*
X0047145Y0078651D01*
X0047400Y0078888D01*
X0047661Y0079118D01*
X0047927Y0079342D01*
X0048198Y0079559D01*
X0048475Y0079770D01*
X0048757Y0079974D01*
X0049044Y0080170D01*
X0049335Y0080360D01*
X0049632Y0080543D01*
X0049932Y0080718D01*
X0050237Y0080885D01*
X0050546Y0081046D01*
X0050858Y0081198D01*
X0051175Y0081343D01*
X0051494Y0081480D01*
X0051817Y0081609D01*
X0052143Y0081731D01*
X0052472Y0081844D01*
X0052804Y0081949D01*
X0053138Y0082046D01*
X0053474Y0082134D01*
X0053813Y0082215D01*
X0054153Y0082287D01*
X0054495Y0082350D01*
X0054838Y0082406D01*
X0055183Y0082452D01*
X0055529Y0082491D01*
X0055875Y0082521D01*
X0056223Y0082542D01*
X0056570Y0082555D01*
X0056918Y0082559D01*
X0057266Y0082555D01*
X0057613Y0082542D01*
X0057961Y0082521D01*
X0058307Y0082491D01*
X0058653Y0082452D01*
X0058998Y0082406D01*
X0059341Y0082350D01*
X0059683Y0082287D01*
X0060023Y0082215D01*
X0060362Y0082134D01*
X0060698Y0082046D01*
X0061032Y0081949D01*
X0061364Y0081844D01*
X0061693Y0081731D01*
X0062019Y0081609D01*
X0062342Y0081480D01*
X0062661Y0081343D01*
X0062978Y0081198D01*
X0063290Y0081046D01*
X0063599Y0080885D01*
X0063904Y0080718D01*
X0064204Y0080543D01*
X0064501Y0080360D01*
X0064792Y0080170D01*
X0065079Y0079974D01*
X0065361Y0079770D01*
X0065638Y0079559D01*
X0065909Y0079342D01*
X0066175Y0079118D01*
X0066436Y0078888D01*
X0066691Y0078651D01*
X0066940Y0078408D01*
X0067183Y0078159D01*
X0067420Y0077904D01*
X0067650Y0077643D01*
X0067874Y0077377D01*
X0068091Y0077106D01*
X0068302Y0076829D01*
X0068506Y0076547D01*
X0068702Y0076260D01*
X0068892Y0075969D01*
X0069075Y0075672D01*
X0069250Y0075372D01*
X0069417Y0075067D01*
X0069578Y0074758D01*
X0069730Y0074446D01*
X0069875Y0074129D01*
X0070012Y0073810D01*
X0070141Y0073487D01*
X0070263Y0073161D01*
X0070376Y0072832D01*
X0070481Y0072500D01*
X0070578Y0072166D01*
X0070666Y0071830D01*
X0070747Y0071491D01*
X0070819Y0071151D01*
X0070882Y0070809D01*
X0070938Y0070466D01*
X0070984Y0070121D01*
X0071023Y0069775D01*
X0071053Y0069429D01*
X0071074Y0069081D01*
X0071087Y0068734D01*
X0071091Y0068386D01*
X0071087Y0068038D01*
X0071074Y0067691D01*
X0071053Y0067343D01*
X0071023Y0066997D01*
X0070984Y0066651D01*
X0070938Y0066306D01*
X0070882Y0065963D01*
X0070819Y0065621D01*
X0070747Y0065281D01*
X0070666Y0064942D01*
X0070578Y0064606D01*
X0070481Y0064272D01*
X0070376Y0063940D01*
X0070263Y0063611D01*
X0070141Y0063285D01*
X0070012Y0062962D01*
X0069875Y0062643D01*
X0069730Y0062326D01*
X0069578Y0062014D01*
X0069417Y0061705D01*
X0069250Y0061400D01*
X0069075Y0061100D01*
X0068892Y0060803D01*
X0068702Y0060512D01*
X0068506Y0060225D01*
X0068302Y0059943D01*
X0068091Y0059666D01*
X0067874Y0059395D01*
X0067650Y0059129D01*
X0067420Y0058868D01*
X0067183Y0058613D01*
X0066940Y0058364D01*
X0066691Y0058121D01*
X0066436Y0057884D01*
X0066175Y0057654D01*
X0065909Y0057430D01*
X0065638Y0057213D01*
X0065361Y0057002D01*
X0065079Y0056798D01*
X0064792Y0056602D01*
X0064501Y0056412D01*
X0064204Y0056229D01*
X0063904Y0056054D01*
X0063599Y0055887D01*
X0063290Y0055726D01*
X0062978Y0055574D01*
X0062661Y0055429D01*
X0062342Y0055292D01*
X0062019Y0055163D01*
X0061693Y0055041D01*
X0061364Y0054928D01*
X0061032Y0054823D01*
X0060698Y0054726D01*
X0060362Y0054638D01*
X0060023Y0054557D01*
X0059683Y0054485D01*
X0059341Y0054422D01*
X0058998Y0054366D01*
X0058653Y0054320D01*
X0058307Y0054281D01*
X0057961Y0054251D01*
X0057613Y0054230D01*
X0057266Y0054217D01*
X0056918Y0054213D01*
X0056570Y0054217D01*
X0056223Y0054230D01*
X0055875Y0054251D01*
X0055529Y0054281D01*
X0055183Y0054320D01*
X0054838Y0054366D01*
X0054495Y0054422D01*
X0054153Y0054485D01*
X0053813Y0054557D01*
X0053474Y0054638D01*
X0053138Y0054726D01*
X0052804Y0054823D01*
X0052472Y0054928D01*
X0052143Y0055041D01*
X0051817Y0055163D01*
X0051494Y0055292D01*
X0051175Y0055429D01*
X0050858Y0055574D01*
X0050546Y0055726D01*
X0050237Y0055887D01*
X0049932Y0056054D01*
X0049632Y0056229D01*
X0049335Y0056412D01*
X0049044Y0056602D01*
X0048757Y0056798D01*
X0048475Y0057002D01*
X0048198Y0057213D01*
X0047927Y0057430D01*
X0047661Y0057654D01*
X0047400Y0057884D01*
X0047145Y0058121D01*
X0046896Y0058364D01*
X0046653Y0058613D01*
X0046416Y0058868D01*
X0046186Y0059129D01*
X0045962Y0059395D01*
X0045745Y0059666D01*
X0045534Y0059943D01*
X0045330Y0060225D01*
X0045134Y0060512D01*
X0044944Y0060803D01*
X0044761Y0061100D01*
X0044586Y0061400D01*
X0044419Y0061705D01*
X0044258Y0062014D01*
X0044106Y0062326D01*
X0043961Y0062643D01*
X0043824Y0062962D01*
X0043695Y0063285D01*
X0043573Y0063611D01*
X0043460Y0063940D01*
X0043355Y0064272D01*
X0043258Y0064606D01*
X0043170Y0064942D01*
X0043089Y0065281D01*
X0043017Y0065621D01*
X0042954Y0065963D01*
X0042898Y0066306D01*
X0042852Y0066651D01*
X0042813Y0066997D01*
X0042783Y0067343D01*
X0042762Y0067691D01*
X0042749Y0068038D01*
X0042745Y0068386D01*
X0019516Y0068386D02*
X0019518Y0068539D01*
X0019524Y0068693D01*
X0019534Y0068846D01*
X0019548Y0068998D01*
X0019566Y0069151D01*
X0019588Y0069302D01*
X0019613Y0069453D01*
X0019643Y0069604D01*
X0019677Y0069754D01*
X0019714Y0069902D01*
X0019755Y0070050D01*
X0019800Y0070196D01*
X0019849Y0070342D01*
X0019902Y0070486D01*
X0019958Y0070628D01*
X0020018Y0070769D01*
X0020082Y0070909D01*
X0020149Y0071047D01*
X0020220Y0071183D01*
X0020295Y0071317D01*
X0020372Y0071449D01*
X0020454Y0071579D01*
X0020538Y0071707D01*
X0020626Y0071833D01*
X0020717Y0071956D01*
X0020811Y0072077D01*
X0020909Y0072195D01*
X0021009Y0072311D01*
X0021113Y0072424D01*
X0021219Y0072535D01*
X0021328Y0072643D01*
X0021440Y0072748D01*
X0021554Y0072849D01*
X0021672Y0072948D01*
X0021791Y0073044D01*
X0021913Y0073137D01*
X0022038Y0073226D01*
X0022165Y0073313D01*
X0022294Y0073395D01*
X0022425Y0073475D01*
X0022558Y0073551D01*
X0022693Y0073624D01*
X0022830Y0073693D01*
X0022969Y0073758D01*
X0023109Y0073820D01*
X0023251Y0073878D01*
X0023394Y0073933D01*
X0023539Y0073984D01*
X0023685Y0074031D01*
X0023832Y0074074D01*
X0023980Y0074113D01*
X0024129Y0074149D01*
X0024279Y0074180D01*
X0024430Y0074208D01*
X0024581Y0074232D01*
X0024734Y0074252D01*
X0024886Y0074268D01*
X0025039Y0074280D01*
X0025192Y0074288D01*
X0025345Y0074292D01*
X0025499Y0074292D01*
X0025652Y0074288D01*
X0025805Y0074280D01*
X0025958Y0074268D01*
X0026110Y0074252D01*
X0026263Y0074232D01*
X0026414Y0074208D01*
X0026565Y0074180D01*
X0026715Y0074149D01*
X0026864Y0074113D01*
X0027012Y0074074D01*
X0027159Y0074031D01*
X0027305Y0073984D01*
X0027450Y0073933D01*
X0027593Y0073878D01*
X0027735Y0073820D01*
X0027875Y0073758D01*
X0028014Y0073693D01*
X0028151Y0073624D01*
X0028286Y0073551D01*
X0028419Y0073475D01*
X0028550Y0073395D01*
X0028679Y0073313D01*
X0028806Y0073226D01*
X0028931Y0073137D01*
X0029053Y0073044D01*
X0029172Y0072948D01*
X0029290Y0072849D01*
X0029404Y0072748D01*
X0029516Y0072643D01*
X0029625Y0072535D01*
X0029731Y0072424D01*
X0029835Y0072311D01*
X0029935Y0072195D01*
X0030033Y0072077D01*
X0030127Y0071956D01*
X0030218Y0071833D01*
X0030306Y0071707D01*
X0030390Y0071579D01*
X0030472Y0071449D01*
X0030549Y0071317D01*
X0030624Y0071183D01*
X0030695Y0071047D01*
X0030762Y0070909D01*
X0030826Y0070769D01*
X0030886Y0070628D01*
X0030942Y0070486D01*
X0030995Y0070342D01*
X0031044Y0070196D01*
X0031089Y0070050D01*
X0031130Y0069902D01*
X0031167Y0069754D01*
X0031201Y0069604D01*
X0031231Y0069453D01*
X0031256Y0069302D01*
X0031278Y0069151D01*
X0031296Y0068998D01*
X0031310Y0068846D01*
X0031320Y0068693D01*
X0031326Y0068539D01*
X0031328Y0068386D01*
X0031326Y0068233D01*
X0031320Y0068079D01*
X0031310Y0067926D01*
X0031296Y0067774D01*
X0031278Y0067621D01*
X0031256Y0067470D01*
X0031231Y0067319D01*
X0031201Y0067168D01*
X0031167Y0067018D01*
X0031130Y0066870D01*
X0031089Y0066722D01*
X0031044Y0066576D01*
X0030995Y0066430D01*
X0030942Y0066286D01*
X0030886Y0066144D01*
X0030826Y0066003D01*
X0030762Y0065863D01*
X0030695Y0065725D01*
X0030624Y0065589D01*
X0030549Y0065455D01*
X0030472Y0065323D01*
X0030390Y0065193D01*
X0030306Y0065065D01*
X0030218Y0064939D01*
X0030127Y0064816D01*
X0030033Y0064695D01*
X0029935Y0064577D01*
X0029835Y0064461D01*
X0029731Y0064348D01*
X0029625Y0064237D01*
X0029516Y0064129D01*
X0029404Y0064024D01*
X0029290Y0063923D01*
X0029172Y0063824D01*
X0029053Y0063728D01*
X0028931Y0063635D01*
X0028806Y0063546D01*
X0028679Y0063459D01*
X0028550Y0063377D01*
X0028419Y0063297D01*
X0028286Y0063221D01*
X0028151Y0063148D01*
X0028014Y0063079D01*
X0027875Y0063014D01*
X0027735Y0062952D01*
X0027593Y0062894D01*
X0027450Y0062839D01*
X0027305Y0062788D01*
X0027159Y0062741D01*
X0027012Y0062698D01*
X0026864Y0062659D01*
X0026715Y0062623D01*
X0026565Y0062592D01*
X0026414Y0062564D01*
X0026263Y0062540D01*
X0026110Y0062520D01*
X0025958Y0062504D01*
X0025805Y0062492D01*
X0025652Y0062484D01*
X0025499Y0062480D01*
X0025345Y0062480D01*
X0025192Y0062484D01*
X0025039Y0062492D01*
X0024886Y0062504D01*
X0024734Y0062520D01*
X0024581Y0062540D01*
X0024430Y0062564D01*
X0024279Y0062592D01*
X0024129Y0062623D01*
X0023980Y0062659D01*
X0023832Y0062698D01*
X0023685Y0062741D01*
X0023539Y0062788D01*
X0023394Y0062839D01*
X0023251Y0062894D01*
X0023109Y0062952D01*
X0022969Y0063014D01*
X0022830Y0063079D01*
X0022693Y0063148D01*
X0022558Y0063221D01*
X0022425Y0063297D01*
X0022294Y0063377D01*
X0022165Y0063459D01*
X0022038Y0063546D01*
X0021913Y0063635D01*
X0021791Y0063728D01*
X0021672Y0063824D01*
X0021554Y0063923D01*
X0021440Y0064024D01*
X0021328Y0064129D01*
X0021219Y0064237D01*
X0021113Y0064348D01*
X0021009Y0064461D01*
X0020909Y0064577D01*
X0020811Y0064695D01*
X0020717Y0064816D01*
X0020626Y0064939D01*
X0020538Y0065065D01*
X0020454Y0065193D01*
X0020372Y0065323D01*
X0020295Y0065455D01*
X0020220Y0065589D01*
X0020149Y0065725D01*
X0020082Y0065863D01*
X0020018Y0066003D01*
X0019958Y0066144D01*
X0019902Y0066286D01*
X0019849Y0066430D01*
X0019800Y0066576D01*
X0019755Y0066722D01*
X0019714Y0066870D01*
X0019677Y0067018D01*
X0019643Y0067168D01*
X0019613Y0067319D01*
X0019588Y0067470D01*
X0019566Y0067621D01*
X0019548Y0067774D01*
X0019534Y0067926D01*
X0019524Y0068079D01*
X0019518Y0068233D01*
X0019516Y0068386D01*
D12*
X0208135Y0023229D02*
X0209669Y0022462D01*
X0211204Y0020927D01*
X0208902Y0020927D01*
X0208135Y0020160D01*
X0208135Y0019392D01*
X0208902Y0018625D01*
X0210437Y0018625D01*
X0211204Y0019392D01*
X0211204Y0020927D01*
X0212739Y0020927D02*
X0215808Y0020927D01*
X0213506Y0023229D01*
X0213506Y0018625D01*
X0217343Y0018625D02*
X0218877Y0020160D01*
X0218110Y0020160D02*
X0220412Y0020160D01*
X0220412Y0018625D02*
X0220412Y0023229D01*
X0218110Y0023229D01*
X0217343Y0022462D01*
X0217343Y0020927D01*
X0218110Y0020160D01*
D13*
X0296800Y0020925D02*
X0296800Y0015925D01*
X0299300Y0013425D01*
X0296800Y0010925D01*
X0296800Y0005925D01*
X0299300Y0003425D01*
X0314300Y0003425D01*
X0316800Y0005925D01*
X0316800Y0010925D01*
X0314300Y0013425D01*
X0316800Y0015925D01*
X0316800Y0020925D01*
X0314300Y0023425D01*
X0316800Y0025925D01*
X0316800Y0030925D01*
X0314300Y0033425D01*
X0316800Y0035925D01*
X0316800Y0040925D01*
X0314300Y0043425D01*
X0316800Y0045925D01*
X0316800Y0050925D01*
X0314300Y0053425D01*
X0316800Y0055925D01*
X0316800Y0060925D01*
X0314300Y0063425D01*
X0316800Y0065925D01*
X0316800Y0070925D01*
X0314300Y0073425D01*
X0316800Y0075925D01*
X0316800Y0080925D01*
X0314300Y0083425D01*
X0316800Y0085925D01*
X0316800Y0090925D01*
X0314300Y0093425D01*
X0316800Y0095925D01*
X0316800Y0100925D01*
X0314300Y0103425D01*
X0299300Y0103425D01*
X0296800Y0100925D01*
X0296800Y0095925D01*
X0299300Y0093425D01*
X0296800Y0090925D01*
X0296800Y0085925D01*
X0299300Y0083425D01*
X0296800Y0080925D01*
X0296800Y0075925D01*
X0299300Y0073425D01*
X0296800Y0070925D01*
X0296800Y0065925D01*
X0299300Y0063425D01*
X0296800Y0060925D01*
X0296800Y0055925D01*
X0299300Y0053425D01*
X0296800Y0050925D01*
X0296800Y0045925D01*
X0299300Y0043425D01*
X0296800Y0040925D01*
X0296800Y0035925D01*
X0299300Y0033425D01*
X0296800Y0030925D01*
X0296800Y0025925D01*
X0299300Y0023425D01*
X0296800Y0020925D01*
D14*
X0294303Y0089863D02*
X0293553Y0089863D01*
X0292802Y0090614D01*
X0292802Y0092115D01*
X0292051Y0092866D01*
X0291301Y0092866D01*
X0290550Y0092115D01*
X0290550Y0090614D01*
X0291301Y0089863D01*
X0294303Y0089863D02*
X0295054Y0090614D01*
X0295054Y0092115D01*
X0294303Y0092866D01*
X0295054Y0094467D02*
X0292051Y0094467D01*
X0290550Y0095968D01*
X0292051Y0097470D01*
X0295054Y0097470D01*
X0295054Y0099071D02*
X0292802Y0099071D01*
X0293553Y0100572D01*
X0293553Y0101323D01*
X0292802Y0102074D01*
X0291301Y0102074D01*
X0290550Y0101323D01*
X0290550Y0099822D01*
X0291301Y0099071D01*
X0295054Y0099071D02*
X0295054Y0102074D01*
D15*
X0311800Y0098425D03*
M02*
