G75*
%MOIN*%
%OFA0B0*%
%FSLAX25Y25*%
%IPPOS*%
%LPD*%
%AMOC8*
5,1,8,0,0,1.08239X$1,22.5*
%
%ADD10C,0.01100*%
%ADD11C,0.01400*%
%ADD12C,0.01200*%
%ADD13C,0.01000*%
%ADD14C,0.01800*%
%ADD15C,0.10000*%
%ADD16C,0.10236*%
%ADD17C,0.07200*%
%ADD18C,0.06000*%
%ADD19R,0.06000X0.06000*%
%ADD20C,0.04000*%
D10*
X0034597Y0033673D02*
X0034597Y0036625D01*
X0032629Y0036625D02*
X0038534Y0036625D01*
X0038534Y0033673D01*
X0037550Y0032689D01*
X0035581Y0032689D01*
X0034597Y0033673D01*
X0035581Y0039134D02*
X0035581Y0043071D01*
X0032629Y0043071D02*
X0038534Y0043071D01*
X0038534Y0039134D02*
X0032629Y0039134D01*
X0143622Y0038206D02*
X0143622Y0036238D01*
X0144607Y0035254D01*
X0145591Y0035254D01*
X0146575Y0036238D01*
X0146575Y0038206D01*
X0147559Y0039191D01*
X0148543Y0039191D01*
X0149527Y0038206D01*
X0149527Y0036238D01*
X0148543Y0035254D01*
X0149527Y0032745D02*
X0143622Y0032745D01*
X0145591Y0032745D02*
X0145591Y0029792D01*
X0146575Y0028808D01*
X0148543Y0028808D01*
X0149527Y0029792D01*
X0149527Y0032745D01*
X0143622Y0038206D02*
X0144607Y0039191D01*
X0248554Y0041109D02*
X0248554Y0037172D01*
X0248554Y0034663D02*
X0252490Y0034663D01*
X0254459Y0032695D01*
X0252490Y0030727D01*
X0248554Y0030727D01*
X0251506Y0030727D02*
X0251506Y0034663D01*
X0248554Y0028218D02*
X0254459Y0028218D01*
X0252490Y0026249D01*
X0254459Y0024281D01*
X0248554Y0024281D01*
X0248554Y0041109D02*
X0254459Y0041109D01*
X0148609Y0114768D02*
X0142704Y0114768D01*
X0146640Y0116736D02*
X0148609Y0114768D01*
X0146640Y0116736D02*
X0148609Y0118705D01*
X0142704Y0118705D01*
X0142704Y0121214D02*
X0144672Y0123182D01*
X0144672Y0122198D02*
X0144672Y0125150D01*
X0142704Y0125150D02*
X0148609Y0125150D01*
X0148609Y0122198D01*
X0147625Y0121214D01*
X0145656Y0121214D01*
X0144672Y0122198D01*
X0143688Y0127659D02*
X0142704Y0128643D01*
X0142704Y0130612D01*
X0143688Y0131596D01*
X0147625Y0131596D01*
X0148609Y0130612D01*
X0148609Y0128643D01*
X0147625Y0127659D01*
D11*
X0290580Y0129654D02*
X0294316Y0129654D01*
X0292448Y0129654D02*
X0292448Y0124050D01*
X0297025Y0124984D02*
X0297025Y0126852D01*
X0297959Y0127786D01*
X0299828Y0127786D01*
X0300762Y0126852D01*
X0300762Y0124984D01*
X0299828Y0124050D01*
X0297959Y0124050D01*
X0297025Y0124984D01*
X0303471Y0124050D02*
X0306273Y0124050D01*
X0307207Y0124984D01*
X0307207Y0126852D01*
X0306273Y0127786D01*
X0303471Y0127786D01*
X0303471Y0122181D01*
D12*
X0009370Y0009517D02*
X0009370Y0006315D01*
X0009370Y0009517D02*
X0012573Y0006315D01*
X0013373Y0006315D01*
X0014174Y0007115D01*
X0014174Y0008717D01*
X0013373Y0009517D01*
X0010171Y0011479D02*
X0009370Y0011479D01*
X0009370Y0012280D01*
X0010171Y0012280D01*
X0010171Y0011479D01*
X0009370Y0014602D02*
X0009370Y0017804D01*
X0009370Y0016203D02*
X0014174Y0016203D01*
X0012573Y0017804D01*
X0014174Y0020126D02*
X0010971Y0020126D01*
X0009370Y0021728D01*
X0010971Y0023329D01*
X0014174Y0023329D01*
X0012573Y0031176D02*
X0012573Y0033578D01*
X0011772Y0034379D01*
X0010971Y0033578D01*
X0010971Y0031977D01*
X0010171Y0031176D01*
X0009370Y0031977D01*
X0009370Y0034379D01*
X0009370Y0036460D02*
X0009370Y0038062D01*
X0009370Y0037261D02*
X0012573Y0037261D01*
X0012573Y0038062D01*
X0014174Y0037261D02*
X0014975Y0037261D01*
X0012573Y0040143D02*
X0012573Y0041745D01*
X0013373Y0040944D02*
X0010171Y0040944D01*
X0009370Y0040143D01*
X0010171Y0044067D02*
X0009370Y0044868D01*
X0009370Y0046469D01*
X0010171Y0047270D01*
X0011772Y0047270D01*
X0012573Y0046469D01*
X0012573Y0044868D01*
X0011772Y0044067D01*
X0010171Y0044067D01*
X0011772Y0049592D02*
X0010971Y0050392D01*
X0010971Y0052794D01*
X0009370Y0052794D02*
X0014174Y0052794D01*
X0014174Y0050392D01*
X0013373Y0049592D01*
X0011772Y0049592D01*
X0010971Y0060641D02*
X0011772Y0061442D01*
X0011772Y0063844D01*
X0010171Y0063844D01*
X0009370Y0063043D01*
X0009370Y0061442D01*
X0010171Y0060641D01*
X0010971Y0060641D01*
X0013373Y0062242D02*
X0011772Y0063844D01*
X0010971Y0066166D02*
X0010171Y0066166D01*
X0009370Y0066966D01*
X0009370Y0068568D01*
X0010171Y0069368D01*
X0011772Y0067767D02*
X0011772Y0066966D01*
X0010971Y0066166D01*
X0011772Y0066966D02*
X0012573Y0066166D01*
X0013373Y0066166D01*
X0014174Y0066966D01*
X0014174Y0068568D01*
X0013373Y0069368D01*
X0008569Y0071690D02*
X0008569Y0074893D01*
X0010171Y0077215D02*
X0009370Y0078016D01*
X0009370Y0079617D01*
X0010171Y0080418D01*
X0010971Y0080418D01*
X0011772Y0079617D01*
X0011772Y0078016D01*
X0010971Y0077215D01*
X0010171Y0077215D01*
X0011772Y0078016D02*
X0012573Y0077215D01*
X0013373Y0077215D01*
X0014174Y0078016D01*
X0014174Y0079617D01*
X0013373Y0080418D01*
X0012573Y0080418D01*
X0011772Y0079617D01*
X0009370Y0082740D02*
X0009370Y0085943D01*
X0009370Y0084341D02*
X0014174Y0084341D01*
X0012573Y0085943D01*
X0014174Y0088265D02*
X0009370Y0088265D01*
X0012573Y0089866D02*
X0014174Y0088265D01*
X0012573Y0089866D02*
X0014174Y0091467D01*
X0009370Y0091467D01*
X0005422Y0097756D02*
X0052548Y0097756D01*
X0062391Y0107598D01*
X0052548Y0107756D02*
X0062391Y0117598D01*
X0052548Y0117756D02*
X0062391Y0127598D01*
X0052548Y0117756D02*
X0005422Y0117756D01*
X0045422Y0107756D02*
X0052548Y0107756D01*
X0078572Y0090433D02*
X0085894Y0097756D01*
X0088099Y0097756D01*
X0089300Y0097175D02*
X0092425Y0097175D01*
X0089300Y0097175D02*
X0088675Y0096550D01*
X0136488Y0096550D01*
X0146175Y0106238D01*
X0194612Y0106238D01*
X0198675Y0102175D01*
X0198675Y0093738D01*
X0195550Y0090613D01*
X0195550Y0082638D01*
X0194737Y0081825D01*
X0191675Y0073250D02*
X0211887Y0093463D01*
X0211887Y0097138D01*
X0191062Y0117963D01*
X0190668Y0117963D01*
X0190461Y0117756D01*
X0190461Y0117951D01*
X0190450Y0117963D01*
X0183334Y0125079D01*
X0180934Y0125079D01*
X0190461Y0117951D02*
X0191062Y0117350D01*
X0195237Y0109988D02*
X0131175Y0109988D01*
X0128362Y0107175D01*
X0128050Y0107175D01*
X0155550Y0112800D02*
X0155550Y0131863D01*
X0195237Y0109988D02*
X0203362Y0101863D01*
X0203362Y0091675D01*
X0202087Y0090400D01*
X0221687Y0072025D02*
X0227200Y0077538D01*
X0245137Y0095663D01*
X0245762Y0095975D01*
X0265113Y0095975D01*
X0271338Y0091625D01*
X0271413Y0091550D01*
X0286175Y0091550D01*
X0299300Y0104675D01*
X0305550Y0104675D01*
X0311800Y0098425D01*
X0301800Y0098425D02*
X0298988Y0098425D01*
X0287113Y0086550D01*
X0287113Y0081875D01*
X0287263Y0081875D01*
X0287263Y0055838D01*
X0261500Y0029763D01*
X0261500Y0018243D01*
X0261643Y0018386D01*
X0261500Y0018243D02*
X0261500Y0018125D01*
X0241643Y0018386D02*
X0241287Y0018031D01*
X0241287Y0017513D01*
X0241287Y0018031D02*
X0241287Y0045688D01*
X0221687Y0065288D01*
X0221687Y0072025D01*
X0194125Y0071734D02*
X0230146Y0107756D01*
X0257272Y0107559D02*
X0263335Y0107559D01*
X0273139Y0097756D01*
X0290338Y0080650D02*
X0298250Y0088563D01*
X0301663Y0088563D01*
X0301800Y0088425D01*
X0311800Y0088425D01*
X0311800Y0078425D02*
X0301800Y0078425D01*
X0311800Y0078425D02*
X0312063Y0078425D01*
X0312338Y0078150D01*
X0311800Y0068425D02*
X0301800Y0068425D01*
X0301800Y0058425D02*
X0311800Y0058425D01*
X0311800Y0048425D02*
X0301800Y0048425D01*
X0298275Y0048138D01*
X0286025Y0035888D01*
X0301800Y0028425D02*
X0311800Y0028425D01*
X0311800Y0018425D02*
X0301800Y0018425D01*
X0296713Y0018425D01*
X0289688Y0011400D01*
X0229637Y0011400D01*
X0194125Y0046913D01*
X0194125Y0071734D01*
X0191675Y0073250D02*
X0191675Y0045688D01*
X0228937Y0008425D01*
X0301800Y0008425D01*
X0311800Y0008425D01*
X0281643Y0018386D02*
X0281643Y0045618D01*
X0290338Y0054313D01*
X0290338Y0080650D01*
X0313139Y0107756D02*
X0310282Y0110613D01*
X0269463Y0110613D01*
X0262516Y0117559D01*
X0257272Y0117559D01*
X0263335Y0127559D02*
X0273139Y0117756D01*
X0263335Y0127559D02*
X0257272Y0127559D01*
X0088675Y0096550D02*
X0088675Y0095300D01*
X0014174Y0060641D02*
X0013373Y0062242D01*
X0049946Y0037776D02*
X0132446Y0037776D01*
X0131273Y0034915D02*
X0129672Y0034915D01*
X0128871Y0034114D01*
X0128871Y0033314D01*
X0129672Y0032513D01*
X0131273Y0032513D01*
X0132074Y0031712D01*
X0132074Y0030911D01*
X0131273Y0030111D01*
X0129672Y0030111D01*
X0128871Y0030911D01*
X0128871Y0031712D01*
X0129672Y0032513D01*
X0131273Y0032513D02*
X0132074Y0033314D01*
X0132074Y0034114D01*
X0131273Y0034915D01*
X0124948Y0034915D02*
X0124948Y0030111D01*
X0123347Y0030111D02*
X0126549Y0030111D01*
X0121025Y0030911D02*
X0120224Y0030111D01*
X0118623Y0030111D01*
X0117822Y0030911D01*
X0121025Y0034114D01*
X0121025Y0030911D01*
X0117822Y0030911D02*
X0117822Y0034114D01*
X0118623Y0034915D01*
X0120224Y0034915D01*
X0121025Y0034114D01*
X0123347Y0033314D02*
X0124948Y0034915D01*
X0115500Y0034114D02*
X0115500Y0033314D01*
X0112297Y0030111D01*
X0115500Y0030111D01*
X0115500Y0034114D02*
X0114699Y0034915D01*
X0113098Y0034915D01*
X0112297Y0034114D01*
X0104450Y0030111D02*
X0101248Y0030111D01*
X0101248Y0034915D01*
X0098926Y0033314D02*
X0098926Y0030111D01*
X0098926Y0032513D02*
X0095723Y0032513D01*
X0095723Y0033314D02*
X0095723Y0030111D01*
X0093401Y0031712D02*
X0093401Y0034915D01*
X0095723Y0033314D02*
X0097324Y0034915D01*
X0098926Y0033314D01*
X0093401Y0031712D02*
X0091800Y0030111D01*
X0090198Y0031712D01*
X0090198Y0034915D01*
X0087876Y0034114D02*
X0087876Y0032513D01*
X0087076Y0031712D01*
X0084674Y0031712D01*
X0086275Y0031712D02*
X0087876Y0030111D01*
X0084674Y0030111D02*
X0084674Y0034915D01*
X0087076Y0034915D01*
X0087876Y0034114D01*
X0082352Y0033314D02*
X0082352Y0030111D01*
X0082352Y0032513D02*
X0079149Y0032513D01*
X0079149Y0033314D02*
X0079149Y0030111D01*
X0076827Y0030111D02*
X0076827Y0034915D01*
X0079149Y0033314D02*
X0080750Y0034915D01*
X0082352Y0033314D01*
X0076827Y0030111D02*
X0073624Y0034915D01*
X0073624Y0030111D01*
X0065777Y0030111D02*
X0064176Y0031712D01*
X0063375Y0030111D02*
X0062575Y0030911D01*
X0062575Y0034114D01*
X0063375Y0034915D01*
X0064977Y0034915D01*
X0065777Y0034114D01*
X0065777Y0030911D01*
X0064977Y0030111D01*
X0063375Y0030111D01*
X0060253Y0030111D02*
X0057050Y0030111D01*
X0057050Y0034915D01*
X0060253Y0034915D01*
X0058651Y0032513D02*
X0057050Y0032513D01*
X0053127Y0030111D02*
X0053127Y0034915D01*
X0054728Y0034915D02*
X0051525Y0034915D01*
X0049946Y0027151D02*
X0132446Y0027151D01*
D13*
X0163654Y0112166D02*
X0166406Y0112166D01*
X0167323Y0113083D01*
X0167323Y0115835D01*
X0163654Y0115835D01*
X0163654Y0117991D02*
X0163654Y0119826D01*
X0163654Y0118908D02*
X0167323Y0118908D01*
X0167323Y0119826D01*
X0169158Y0118908D02*
X0170076Y0118908D01*
X0166406Y0122141D02*
X0163654Y0122141D01*
X0163654Y0124893D01*
X0164571Y0125811D01*
X0165489Y0124893D01*
X0165489Y0122141D01*
X0166406Y0122141D02*
X0167323Y0123058D01*
X0167323Y0124893D01*
X0166406Y0128126D02*
X0166406Y0129961D01*
X0166406Y0128126D02*
X0164571Y0128126D01*
X0163654Y0129043D01*
X0163654Y0130878D01*
X0164571Y0131796D01*
X0168241Y0131796D01*
X0169158Y0130878D01*
X0169158Y0129043D01*
X0168241Y0128126D01*
X0287380Y0132100D02*
X0287380Y0119600D01*
X0309880Y0119600D01*
X0309880Y0132100D01*
X0287380Y0132100D01*
D14*
X0201564Y0032105D02*
X0196760Y0032105D01*
X0194357Y0029703D01*
X0196760Y0027301D01*
X0201564Y0027301D01*
X0199162Y0023818D02*
X0201564Y0021416D01*
X0194357Y0021416D01*
X0194357Y0023818D02*
X0194357Y0019014D01*
X0194357Y0015531D02*
X0194357Y0014330D01*
X0195559Y0014330D01*
X0195559Y0015531D01*
X0194357Y0015531D01*
X0194357Y0011387D02*
X0199162Y0006583D01*
X0200363Y0006583D01*
X0201564Y0007784D01*
X0201564Y0010186D01*
X0200363Y0011387D01*
X0194357Y0011387D02*
X0194357Y0006583D01*
D15*
X0179280Y0018386D03*
X0159280Y0018386D03*
X0139280Y0018386D03*
X0076918Y0018386D03*
X0056918Y0018386D03*
X0036918Y0018386D03*
X0241643Y0018386D03*
X0261643Y0018386D03*
X0281643Y0018386D03*
D16*
X0180934Y0090433D03*
X0190461Y0097756D03*
X0230146Y0107756D03*
X0190461Y0117756D03*
X0180934Y0125079D03*
X0127784Y0107756D03*
X0088099Y0117756D03*
X0078572Y0125079D03*
X0088099Y0097756D03*
X0078572Y0090433D03*
D17*
X0045422Y0107756D03*
X0005422Y0117756D03*
X0005422Y0097756D03*
X0273139Y0097756D03*
X0313139Y0107756D03*
X0273139Y0117756D03*
D18*
X0257272Y0117559D03*
X0257272Y0127559D03*
X0301800Y0098425D03*
X0301800Y0088425D03*
X0311800Y0088425D03*
X0311800Y0078425D03*
X0301800Y0078425D03*
X0301800Y0068425D03*
X0311800Y0068425D03*
X0311800Y0058425D03*
X0301800Y0058425D03*
X0301800Y0048425D03*
X0311800Y0048425D03*
X0311800Y0038425D03*
X0301800Y0038425D03*
X0301800Y0028425D03*
X0311800Y0028425D03*
X0311800Y0018425D03*
X0301800Y0018425D03*
X0301800Y0008425D03*
X0311800Y0008425D03*
X0062391Y0117598D03*
X0062391Y0127598D03*
D19*
X0062391Y0107598D03*
X0257272Y0107559D03*
X0311800Y0098425D03*
D20*
X0202087Y0090400D03*
X0194737Y0081825D03*
X0286025Y0035888D03*
M02*
