G75*
%MOIN*%
%OFA0B0*%
%FSLAX25Y25*%
%IPPOS*%
%LPD*%
%AMOC8*
5,1,8,0,0,1.08239X$1,22.5*
%
%ADD10C,0.14186*%
%ADD11C,0.12611*%
%ADD12C,0.29146*%
%ADD13C,0.10800*%
%ADD14C,0.11036*%
%ADD15R,0.05131X0.06706*%
%ADD16C,0.08000*%
%ADD17C,0.06800*%
%ADD18R,0.06800X0.06800*%
%ADD19C,0.04800*%
D10*
X0108099Y0052638D03*
X0210461Y0052638D03*
D11*
X0230146Y0068386D03*
X0127784Y0068386D03*
X0025422Y0068386D03*
D12*
X0056918Y0068386D03*
X0159280Y0068386D03*
X0261643Y0068386D03*
D13*
X0036918Y0018386D03*
X0056918Y0018386D03*
X0076918Y0018386D03*
X0139280Y0018386D03*
X0159280Y0018386D03*
X0179280Y0018386D03*
X0241643Y0018386D03*
X0261643Y0018386D03*
X0281643Y0018386D03*
D14*
X0180934Y0090433D03*
X0190461Y0097756D03*
X0230146Y0107756D03*
X0190461Y0117756D03*
X0180934Y0125079D03*
X0127784Y0107756D03*
X0088099Y0117756D03*
X0078572Y0125079D03*
X0088099Y0097756D03*
X0078572Y0090433D03*
D15*
X0205166Y0028425D03*
X0213434Y0028425D03*
D16*
X0273139Y0097756D03*
X0313139Y0107756D03*
X0273139Y0117756D03*
X0045422Y0107756D03*
X0005422Y0117756D03*
X0005422Y0097756D03*
D17*
X0062391Y0117598D03*
X0062391Y0127598D03*
X0257272Y0127559D03*
X0257272Y0117559D03*
X0301800Y0098425D03*
X0301800Y0088425D03*
X0311800Y0088425D03*
X0311800Y0078425D03*
X0301800Y0078425D03*
X0301800Y0068425D03*
X0311800Y0068425D03*
X0311800Y0058425D03*
X0301800Y0058425D03*
X0301800Y0048425D03*
X0311800Y0048425D03*
X0311800Y0038425D03*
X0301800Y0038425D03*
X0301800Y0028425D03*
X0311800Y0028425D03*
X0311800Y0018425D03*
X0301800Y0018425D03*
X0301800Y0008425D03*
X0311800Y0008425D03*
D18*
X0311800Y0098425D03*
X0257272Y0107559D03*
X0062391Y0107598D03*
D19*
X0194737Y0081825D03*
X0202087Y0090400D03*
X0286025Y0035888D03*
M02*
